<svg width="140" height="125" viewBox="0 0 140 125" fill="none" xmlns="http://www.w3.org/2000/svg">
<path d="M81.7961 64.278C81.0094 63.9577 80.0914 64.3511 79.7855 65.1379C78.2414 68.9997 74.5687 71.4911 70.4295 71.4911C66.2039 71.4911 62.4002 68.8248 60.9578 64.8462C60.666 64.0452 59.7776 63.6223 58.9613 63.9141C58.1603 64.2048 57.7374 65.0943 58.0282 65.9105C59.9229 71.113 64.8927 74.5956 70.4155 74.5956C75.8366 74.5956 80.6456 71.3316 82.6563 66.2886C82.9776 65.5019 82.5842 64.5839 81.7964 64.278H81.7961ZM54.9537 43.1324C48.7449 43.1324 43.6887 48.0005 43.339 54.1351H66.5531C66.3203 47.913 61.2338 43.1324 54.9537 43.1324ZM85.7594 43.1324C79.5517 43.1324 74.4944 48.0005 74.1447 54.1351H97.3741C97.1403 47.913 92.0405 43.1324 85.7594 43.1324ZM64.439 12.0639C62.0491 14.0756 60.4757 17.0183 60.3008 20.3414C63.3606 20.2682 66.6977 20.2103 70.3563 20.2103C75.019 20.2103 79.4348 20.3414 83.5292 20.56C83.3981 17.1354 81.8103 14.104 79.3614 12.0498L84.8993 2.32978C85.3222 1.5867 85.06 0.639316 84.3169 0.202212C83.5728 -0.220657 82.6264 0.0416023 82.2035 0.784679L76.7245 10.3886C75.2526 9.71773 73.6343 9.32435 71.9155 9.32435C70.1813 9.32435 68.5486 9.71773 67.0768 10.3886L63.1572 3.85952C62.7201 3.13068 61.7575 2.88266 61.0297 3.32078C60.3008 3.75788 60.0528 4.7195 60.4899 5.44834L64.439 12.0639ZM139.504 43.2053C137.1 40.6406 129.959 40.5236 127.686 41.282C126.389 41.7049 126.024 42.4917 125.966 43.0599C125.908 43.5265 125.98 44.4149 127.132 45.1295C127.321 45.2454 127.526 45.3481 127.73 45.464C126.52 54.3533 122.716 61.7271 119.627 66.4346C117.849 69.1303 115.124 70.9379 112.063 71.564C112.632 67.3231 113.055 62.5729 113.055 57.5016C113.055 51.7451 112.705 46.3383 112.238 41.705C111.32 32.5817 104.063 25.3544 94.9412 24.4943C88.281 23.8671 79.7991 23.3141 70.3854 23.3141C60.2285 23.3141 52.4318 23.6638 46.5592 24.1294C37.3344 24.8582 29.9026 32.0135 28.868 41.2232C28.2418 46.8485 27.702 52.9842 27.702 57.5017C27.702 61.8444 28.2702 66.9297 29.0143 71.7247C25.5166 71.3313 22.3541 69.4365 20.3719 66.4348C17.2828 61.7273 13.4941 54.3535 12.2692 45.4641C12.4735 45.3625 12.6779 45.2456 12.8669 45.1297C14.0034 44.4151 14.0766 43.5266 14.0329 43.0601C13.9597 42.4766 13.61 41.7051 12.3129 41.2822C10.0258 40.5391 2.89896 40.655 0.494983 43.2054C0.101598 43.6283 -0.0732488 44.1965 0.028396 44.7648C0.115817 45.2313 0.407548 45.8728 1.35496 46.3241C2.38978 46.8201 3.75902 47.0529 5.21673 47.0529C6.5575 47.0529 7.98581 46.8639 9.29709 46.5427C10.6816 55.7086 14.587 63.2724 17.7779 68.1394C20.4452 72.1901 24.802 74.6248 29.5389 74.8871C31.1561 83.2368 38.0634 89.532 46.5452 90.392C50.2321 90.7711 54.4437 91.1066 58.8878 91.3536C55.9004 95.8131 50.1733 105.97 49.5035 118.779C46.7204 118.37 43.5284 118.589 41.6337 119.755C40.731 120.295 40.4973 120.979 40.4535 121.445C40.4098 122.014 40.6284 122.568 41.0655 122.947C42.4215 124.141 44.971 124.564 47.4197 124.564C49.7221 124.564 51.9513 124.185 53.0156 123.719C54.269 123.165 54.5455 122.363 54.5607 121.781C54.575 121.314 54.4144 120.44 53.2047 119.828C53.0157 119.726 52.7829 119.653 52.5786 119.566C53.1326 105.386 60.5644 94.2677 62.5606 91.5263C65.1253 91.6289 67.7337 91.6869 70.3716 91.6869C73.0095 91.6869 75.6178 91.6289 78.1826 91.5263C80.1943 94.281 87.6117 105.399 88.1646 119.566C87.9461 119.653 87.7275 119.726 87.5385 119.828C86.3288 120.426 86.1682 121.3 86.1835 121.781C86.1977 122.363 86.4742 123.179 87.7276 123.719C88.7918 124.185 91.021 124.564 93.3235 124.564C95.7723 124.564 98.3227 124.141 99.6777 122.947C100.115 122.568 100.333 122.014 100.29 121.445C100.246 120.979 100.012 120.309 99.1095 119.755C97.2147 118.604 94.0228 118.386 91.2397 118.793C90.5698 105.984 84.8274 95.8261 81.8554 91.3679C86.4461 91.1198 90.7734 90.7559 94.5334 90.3768C103.044 89.5025 109.922 83.1778 111.54 74.8271C115.854 74.2741 119.759 71.8985 122.207 68.1528C125.399 63.2858 129.304 55.7228 130.703 46.556C132.014 46.8773 133.428 47.0663 134.783 47.0663C136.241 47.0663 137.61 46.8478 138.645 46.3375C139.592 45.8719 139.884 45.2305 139.972 44.7781C140.073 44.1957 139.898 43.6417 139.505 43.2046L139.504 43.2053ZM104.02 72.9336C103.203 78.1067 98.9776 82.0996 93.7458 82.6383C85.3808 83.4983 77.512 83.9354 70.3568 83.9354C63.3033 83.9354 55.5504 83.5135 47.2882 82.682C42.1294 82.1575 37.9322 78.2522 37.0581 73.1665C35.9938 66.8714 35.4256 61.4644 35.4256 57.5152C35.4256 53.9737 35.8048 48.6409 36.5478 42.0977C37.1598 36.6176 41.6051 32.3189 47.1276 31.8817C53.7582 31.3572 61.5692 31.095 70.3571 31.095C78.1821 31.095 86.1974 31.4741 94.1832 32.2467C99.6186 32.7559 103.947 37.07 104.501 42.5054C105.025 47.6501 105.287 52.706 105.287 57.5293C105.273 62.4554 104.85 67.6436 104.02 72.9335L104.02 72.9336Z" fill="#0C54A0"/>
</svg>
