<svg width="120" height="133" viewBox="0 0 120 133" fill="none" xmlns="http://www.w3.org/2000/svg">
<path d="M109.005 69.2423C108.173 68.3834 107.314 67.5521 106.4 66.804V2.21667C106.4 0.9975 105.403 0 104.183 0H2.21667C0.9975 0 0 0.9975 0 2.21667V130.783C0 132.002 0.9975 133 2.21667 133H82.5715C102.965 132.695 119.396 116.236 119.7 95.8436C119.839 85.9793 116.042 76.531 109.005 69.2436V69.2423ZM97.5333 11.9966L101.967 7.56327V63.479C100.554 62.5646 99.0574 61.7611 97.5333 61.0407V11.9966ZM97.5333 77.5821C97.5333 81.2673 94.5686 84.2321 90.8833 84.2321C87.1981 84.2321 84.2333 81.2673 84.2333 77.5821C84.2333 73.8968 87.1981 70.9321 90.8833 70.9321C94.5686 70.9321 97.5333 73.8968 97.5333 77.5821ZM7.56453 128.565L11.9979 124.132H57.9373C59.9601 125.822 62.1214 127.318 64.4488 128.565H7.56453ZM66.5 113.049C61.5957 113.049 57.6333 109.086 57.6333 104.182C57.6333 99.2778 61.5957 95.3154 66.5 95.3154C71.4043 95.3154 75.3667 99.2778 75.3667 104.182C75.3667 109.086 71.4043 113.049 66.5 113.049ZM46.55 43.0299L50.0691 46.549L46.55 50.068L43.0309 46.549L46.55 43.0299ZM39.235 44.0828C30.2298 41.7553 23.6074 34.0802 22.6655 24.8255L22.4161 22.4148L24.8267 22.6642C34.0812 23.6063 41.7565 30.2009 44.0841 39.2337L39.235 44.0828ZM59.85 43.0299L63.3691 46.549L26.1291 83.7611C25.1593 84.7309 23.58 84.7309 22.61 83.7611C21.64 82.7913 21.6402 81.2121 22.61 80.2421L59.85 43.0299ZM72.5126 37.0449L81.3793 28.1783L77.9988 38.3473L66.9431 43.8614L62.5652 39.4835L68.0793 28.4278L78.2483 25.0473L69.3817 33.914L72.5126 37.0449ZM59.85 56.3299L75.3391 71.819C75.2005 73.7309 74.6741 75.5873 73.7597 77.2499L56.3311 59.849L59.85 56.3299ZM80.7143 57.6599C78.5807 57.7431 76.6133 58.8237 75.3943 60.5971C74.6184 61.7331 74.2028 63.0908 74.2305 64.4761L62.981 53.1987L67.8022 48.3775L80.7698 41.8937C81.2963 41.6444 81.6842 41.1733 81.8782 40.6192L88.5281 20.6692C88.916 19.5054 88.2788 18.2585 87.115 17.8706C86.6717 17.732 86.1729 17.732 85.7019 17.8706L65.7519 24.5206C65.1977 24.7145 64.7267 25.1025 64.4773 25.6289L57.9935 38.5965L53.2 43.4177L48.545 38.7627L48.4341 38.264C45.691 27.3747 36.4365 19.3947 25.2698 18.2585L20.1715 17.732C18.9523 17.6212 17.8717 18.5079 17.7332 19.727C17.7055 19.8656 17.7055 20.0318 17.7332 20.1704L18.2319 25.2687C19.368 36.4351 27.3757 45.6897 38.2374 48.433L38.7362 48.5438L43.3912 53.1988L19.4788 77.1112C16.7912 79.8267 16.7912 84.2046 19.4788 86.8922C22.1664 89.5798 26.5445 89.5798 29.2597 86.8922L53.1721 62.9798L70.9609 80.7686C66.6385 84.7031 60.2654 85.3681 55.2226 82.3757C52.0638 80.4915 47.9907 81.5167 46.1066 84.6478C45.7741 85.2297 45.4971 85.8392 45.3585 86.5042C44.6381 89.469 44.3056 92.5169 44.3333 95.565C44.3887 104.432 47.6307 112.994 53.4493 119.699H13.301V13.299H93.101V59.3221C89.7484 58.2692 86.2848 57.6873 82.7657 57.6319C82.1007 57.6319 81.408 57.6319 80.7153 57.6596L80.7143 57.6599ZM88.6667 119.699C84.9814 119.699 82.0167 116.734 82.0167 113.049C82.0167 109.363 84.9814 106.399 88.6667 106.399C92.3519 106.399 95.3167 109.363 95.3167 113.049C95.3167 116.734 92.3519 119.699 88.6667 119.699ZM101.967 101.965C98.2814 101.965 95.3167 99.0006 95.3167 95.3154C95.3167 91.6302 98.2814 88.6654 101.967 88.6654C105.652 88.6654 108.617 91.6302 108.617 95.3154C108.617 99.0006 105.652 101.965 101.967 101.965Z" fill="#0C54A0"/>
</svg>
