<svg width="44" height="156" viewBox="0 0 44 156" fill="none" xmlns="http://www.w3.org/2000/svg">
<path d="M8.43469 139.344C8.71414 137.852 9.78775 137.371 10.57 137.019C10.8518 136.892 11.1109 136.763 11.345 136.609C11.7845 136.321 12.1141 135.923 12.2777 135.073C12.5285 133.753 12.464 131.641 12.396 129.402C12.3064 126.449 12.2025 123.101 12.7889 120.505C13.718 116.396 16.8421 110.436 17.5181 109.173C17.493 108.938 17.4655 108.711 17.4261 108.521C17.1395 107.158 15.8175 103.664 14.6077 100.607C13.1806 100.356 11.738 100.069 10.2787 99.741C9.92644 99.661 9.66132 99.366 9.6231 99.0065C8.81939 91.7756 10.6585 83.0207 14.3068 76.7008C17.382 71.3733 20.346 68.1323 21.2787 67.1708C20.9838 65.4237 18.8604 58.6871 16.4373 56.5171C15.359 55.9988 13.4195 54.8308 10.8769 52.2883C6.93948 48.3509 -9.53674e-05 32.5849 -9.53674e-05 28.62C-9.53674e-05 25.1889 4.33626 16.9918 5.55426 14.7561C5.01805 14.0288 3.82742 12.4811 2.41694 11.0706C1.72072 10.3756 1.50336 9.42857 1.81984 8.47319C2.27723 7.09148 3.81657 5.83515 5.32494 5.61539C6.39735 5.45417 7.35034 5.84469 7.93191 6.67466C9.5453 8.97952 11.5899 14.8597 10.2547 17.1719C9.53576 18.4163 7.73964 25.8385 6.65635 30.7444C7.49351 32.082 10.9365 37.665 13.2413 42.7009C14.7567 43.3911 16.4275 44.2761 17.1943 44.6893L17.7567 44.3656C17.6755 43.8641 17.4522 42.8872 16.8599 41.2989C14.6733 40.8666 12.8292 39.3153 12.083 37.1515C11.9146 36.6667 11.6232 35.7853 11.3354 34.9112C11.0619 34.0872 10.7932 33.2751 10.632 32.8057C10.4385 32.3973 8.68301 28.5208 10.6129 25.9258C11.9098 24.181 13.7416 23.2257 15.79 23.0931C16.1793 22.0255 17.0511 21.1262 18.2465 20.7452C18.7361 20.5888 19.2377 20.5398 19.7261 20.5828C17.407 18.2027 15.225 15.6412 13.7563 13.9071C13.0493 13.0735 12.5322 12.4597 12.2803 12.2089C10.9917 10.9204 11.0562 3.94372 12.3818 1.39034C13.1043 -0.000939694 14.0668 -0.0642238 14.5767 0.0277373C16.4087 0.346605 18.2072 2.23945 18.6719 4.33994C18.9298 5.50669 18.9788 7.63837 16.7683 9.59346C18.3363 10.9871 20.9181 12.9194 23.2337 14.6547C26.581 17.1614 28.6651 18.7413 29.2753 19.5688C30.3346 21.0091 30.6451 21.9776 30.7335 22.4637C31.3103 23.2829 33.4038 26.586 34.5562 32.8139C35.1987 36.282 35.5152 39.2197 35.7696 41.5795C36.0287 43.993 36.2413 45.9073 36.6736 47.5111C37.0928 48.0999 37.4546 48.6803 37.7233 49.2451C39.5863 53.1526 38.4626 56.008 38.1222 56.7103C38.0135 57.5092 37.4809 61.8669 38.1186 66.7165C39.1325 68.3299 46.1784 80.3655 43.3241 98.7256C43.2823 99.0038 43.1032 99.2403 42.85 99.3609C42.6637 99.4493 38.6583 101.296 30.8315 101.718C29.9012 104.205 28.9267 106.788 27.9833 109.248C28.0513 111.233 28.0143 112.66 28.0107 112.719C28.6521 119.676 30.2428 133.647 31.6724 136.726C33.5891 140.859 33.9832 145.022 33.9832 149.998C33.9832 150.042 33.976 150.076 33.9748 150.12C33.9748 150.121 33.976 150.124 33.976 150.125C33.976 150.174 33.9653 150.213 33.9653 150.262C33.9545 150.696 33.9283 151.108 33.8721 151.481C33.8709 151.489 33.8686 151.494 33.8674 151.502C33.5521 153.558 32.5931 154.699 31.4753 155.179C31.4479 155.191 31.418 155.194 31.3905 155.206C31.1935 155.284 30.9952 155.352 30.7934 155.391C30.5618 155.437 30.3277 155.46 30.0972 155.46C28.6701 155.46 27.7326 153.148 25.8064 146.636C25.5795 145.867 25.3777 145.184 25.2117 144.672C25.1066 144.346 25.023 144.05 24.9573 143.774C24.9299 143.664 24.9203 143.572 24.8976 143.469C24.8666 143.315 24.8295 143.154 24.8092 143.015C24.6182 141.621 25.0039 140.935 25.5198 140.246C25.6607 140.056 25.7825 139.894 25.8709 139.697L25.8721 139.696C25.97 139.473 26.0309 139.207 26.0309 138.811C26.0309 137.595 24.2169 134.121 22.6154 131.054C21.986 129.849 21.3591 128.636 20.7715 127.45C19.4507 132.224 18.3437 138.261 18.3437 141.672C18.3437 143.177 18.45 144.788 18.5551 146.344C18.5825 146.737 18.604 147.103 18.6267 147.469C18.6267 147.47 18.6279 147.47 18.6279 147.472C18.6315 147.518 18.6327 147.557 18.6351 147.603C18.6458 147.777 18.6542 147.945 18.6637 148.113C18.6804 148.406 18.6948 148.695 18.7055 148.965C18.7127 149.11 18.7139 149.245 18.7187 149.384C18.727 149.635 18.7318 149.882 18.7354 150.113C18.7366 150.255 18.7354 150.392 18.7342 150.528C18.733 150.743 18.727 150.952 18.7187 151.149C18.7139 151.271 18.7055 151.388 18.6984 151.504C18.6852 151.701 18.6661 151.888 18.6422 152.065C18.6303 152.16 18.6172 152.257 18.6028 152.347C18.5742 152.526 18.5348 152.694 18.4942 152.852C18.475 152.925 18.4583 153.002 18.4368 153.07C18.3855 153.231 18.3246 153.374 18.2601 153.512C18.2362 153.564 18.2159 153.622 18.1884 153.67C18.0989 153.835 17.995 153.981 17.8779 154.111C17.8696 154.122 17.8648 154.135 17.8541 154.143L17.8517 154.146C17.4922 154.529 17.0205 154.731 16.4891 154.731C14.9545 154.731 14.1699 153.707 13.6719 152.321C13.3733 151.489 13.1775 150.526 12.984 149.575C12.8073 148.707 12.6246 147.809 12.3702 146.936C11.9451 145.478 11.053 144.419 10.1884 143.395C10.0068 143.18 9.82888 142.964 9.65811 142.752C9.00368 141.938 8.47702 141.114 8.40059 140.152C8.39581 140.078 8.38029 140.006 8.37909 139.93C8.38029 139.736 8.3982 139.543 8.43522 139.342L8.43469 139.344ZM28.4249 149.409C29.0459 151.328 29.7577 153.282 30.2425 153.762C31.2815 153.685 31.9682 152.791 32.1974 151.243C31.955 151.28 31.721 151.301 31.4952 151.301C30.8253 151.301 30.215 151.136 29.6836 150.812C29.2202 150.529 28.7999 150.036 28.4249 149.409L28.4249 149.409ZM27.7263 138.808C27.7263 139.35 27.6331 139.761 27.5113 140.112C28.0081 143.544 29.2573 148.571 30.5626 149.364C31.0068 149.633 31.5812 149.666 32.2811 149.489C32.2536 144.848 31.8619 141.166 30.1339 137.44C28.2267 133.331 26.3995 113.711 26.3194 112.777C26.3206 112.726 26.4519 107.629 25.7545 103.308C25.6685 102.77 25.5921 102.249 25.5252 101.745C22.6352 101.653 19.6364 101.372 16.5458 100.901C17.6708 103.779 18.8053 106.841 19.0848 108.171C19.3141 109.258 19.3117 110.805 19.3105 112.596C19.3069 115.557 19.3033 119.242 20.3518 122.296C21.1066 124.496 22.6364 127.43 24.1183 130.266C26.0553 133.973 27.7261 137.175 27.7261 138.808L27.7263 138.808ZM29.0758 22.817C29.0758 22.8098 29.0041 22.0575 27.9126 20.5731C27.4194 19.9031 24.6582 17.8359 22.221 16.0099C19.3345 13.8471 16.3477 11.6115 14.8705 10.1342C14.6938 9.95746 14.603 9.71026 14.6245 9.45948C14.646 9.20869 14.7785 8.98298 14.9839 8.83849C16.6559 7.67412 17.3593 6.24463 17.0177 4.703C16.669 3.12664 15.3231 1.87507 14.2865 1.69595C14.2101 1.68043 14.0918 1.82015 13.9712 2.01482C12.7352 4.0247 12.8606 10.1785 13.4768 11.0073C13.7431 11.2736 14.2961 11.9221 15.046 12.807C17.628 15.8535 22.4347 21.5237 26.1596 23.9729C26.3782 24.115 26.5167 24.3538 26.5394 24.6142C27.0362 30.9509 29.2742 35.3826 29.2957 35.4266C29.3733 35.5771 29.4043 35.7491 29.3817 35.9187C29.1727 37.593 28.9278 38.7991 28.6711 39.6864C29.4927 40.3241 32.1343 42.4271 34.4465 44.8598C34.3175 43.9104 34.2041 42.8953 34.0822 41.7573C33.8183 39.3044 33.5174 36.5243 32.8856 33.117C31.652 26.4569 29.2732 23.3352 29.2481 23.304C29.1526 23.1774 29.0881 22.9827 29.0762 22.8167L29.0758 22.817ZM18.7625 22.3596C18.2908 22.5101 17.9313 22.8158 17.6686 23.1789C18.0699 23.2481 18.4759 23.3484 18.8844 23.481C19.6964 23.7401 20.505 24.3062 21.2406 25.0156C21.4699 24.5629 21.5272 24.0614 21.3767 23.5921C21.1223 22.7919 20.3473 22.2545 19.4492 22.2545C19.2187 22.2521 18.9871 22.288 18.7626 22.3596L18.7625 22.3596ZM13.6882 36.5983C14.5038 38.9641 17.2171 40.3076 19.6091 39.4835C22.0369 38.6464 23.3303 35.9904 22.4943 33.5626C22.4215 33.3512 22.3212 33.0539 22.2113 32.7231C21.2141 32.704 20.5394 31.7665 19.7632 30.675C18.846 29.3864 17.8082 27.9271 16.3275 27.9271C14.0644 27.9283 13.1412 28.966 12.3087 32.4591C12.4735 32.9451 12.7076 33.6509 12.9476 34.3758C13.2331 35.2452 13.5233 36.1182 13.6881 36.5983L13.6882 36.5983ZM11.8312 43.6919C9.2636 37.9967 5.08267 31.4249 5.04201 31.3579C4.92139 31.168 4.88079 30.9387 4.92856 30.7202C5.20801 29.4472 7.68601 18.2345 8.78829 16.3238C9.592 14.9325 8.11476 9.88804 6.54555 7.64526C6.40941 7.4518 6.15744 7.20579 5.57225 7.29057C4.68854 7.41954 3.68894 8.21968 3.42981 9.00429C3.28054 9.45691 3.45012 9.70411 3.61612 9.87009C5.64391 11.8979 7.18817 14.1169 7.25268 14.2098C7.4354 14.4761 7.45451 14.8213 7.29686 15.1031C5.73958 17.9071 1.69604 25.8009 1.69604 28.6181C1.69604 32.1315 8.50905 47.5178 12.0762 51.0887C14.1709 53.1833 15.7913 54.2498 16.773 54.7824C19.3227 52.1682 20.7162 49.9816 18.5679 45.8544L17.6305 46.3954C17.3749 46.5423 17.0596 46.5459 16.7981 46.4037C16.773 46.3906 14.2556 45.0053 12.2587 44.1168C12.0712 44.0344 11.9184 43.8815 11.8312 43.6917L11.8312 43.6919ZM16.2473 24.7442C14.5181 24.7442 13.0421 25.5014 11.9755 26.9345C11.4369 27.6582 11.3485 28.6028 11.4416 29.4877C12.2418 27.5949 13.5709 26.2333 16.3271 26.2312C18.6821 26.2312 20.1034 28.2315 21.1434 29.6907C21.5005 30.1947 22.0415 30.953 22.2182 31.0091C22.4797 30.7822 22.3926 30.1971 22.3436 29.9582C21.9567 28.0881 19.9146 25.5861 18.3668 25.0918C17.6455 24.8625 16.9313 24.7442 16.247 24.7442H16.2473ZM19.4812 44.4715C19.5995 44.5109 19.7153 44.5647 19.8096 44.6566C19.8574 44.7008 24.5664 49.1828 28.3818 49.1828C28.7783 49.1828 29.1544 49.1315 29.4972 49.0324C30.111 48.8509 30.2889 48.5344 30.3737 48.2776C30.8658 46.8111 29.275 43.7062 27.8551 41.5731C27.4944 42.0496 27.1756 42.1058 26.9869 42.1344C25.5753 42.353 24.2271 40.5652 23.2479 38.7595C22.5075 39.8009 21.4602 40.6357 20.1608 41.0835C19.6831 41.2483 19.1875 41.3343 18.6895 41.3821C19.2496 42.9967 19.4323 43.9783 19.4812 44.4714V44.4715ZM22.702 25.8977C22.6136 26.0566 22.505 26.1999 22.3987 26.3432C23.1976 27.4215 23.7971 28.611 24.0037 29.6165C24.2223 30.6782 24.0157 31.3792 23.7052 31.8473C23.8592 32.3119 23.9989 32.7287 24.0945 33.0069C24.5351 34.2872 24.5339 35.6103 24.184 36.8248C25.0498 38.6472 26.0637 40.1807 26.6011 40.4253C26.9415 39.8461 27.4084 37.9126 27.6712 35.959C27.1851 34.9355 25.4009 30.8537 24.8862 25.156C24.3201 24.7631 23.7314 24.295 23.1391 23.7946C23.2119 24.5135 23.065 25.2408 22.702 25.8976L22.702 25.8977ZM37.6405 99.1456C39.7328 85.6987 36.4606 73.2069 35.2282 69.2017C35.8754 69.0321 36.549 68.8052 37.2249 68.5723C36.8571 67.8904 36.6111 67.5011 36.5979 67.4808C36.5263 67.3757 36.4821 67.2539 36.4654 67.1285C36.4618 67.1034 36.4606 67.0771 36.457 67.0521C29.9785 69.2065 24.7763 68.1711 22.9731 67.6707C22.9361 67.8295 22.8716 67.9788 22.7522 68.0946C22.7403 68.1066 22.2948 68.5472 21.5926 69.3438C19.6556 73.275 15.1474 84.0159 14.8105 98.9079C15.3789 99.0083 15.939 99.0978 16.5003 99.1862C16.8084 83.8081 21.7896 72.7257 23.4065 69.5337C23.8902 69.6435 24.4682 69.7522 25.1286 69.8453C23.9511 73.7778 21.1686 84.9046 22.05 99.8479C22.6197 99.8957 23.1988 99.9638 23.7601 99.9948C22.8179 84.6776 25.7808 73.4698 26.8449 70.0234C27.3667 70.0592 27.9149 70.0831 28.5013 70.0831C28.7974 70.0831 29.1306 70.0557 29.4423 70.0461C29.7946 73.3363 30.5888 84.0818 28.2947 100.095C28.8834 100.088 29.459 100.076 30.0096 100.053C32.2559 84.1821 31.5 73.4113 31.1334 69.9303C31.9096 69.8503 32.7217 69.7249 33.566 69.5589C34.7292 73.2884 38.1448 85.9484 35.8792 99.4707C36.5133 99.3656 37.1021 99.2593 37.6407 99.1459L37.6405 99.1456ZM27.5969 101.81C27.5957 101.81 27.5957 101.81 27.5969 101.81C27.4811 101.81 27.3617 101.799 27.2458 101.798C27.302 102.203 27.3593 102.611 27.4274 103.038C27.5432 103.752 27.634 104.48 27.7104 105.203C28.1415 104.063 28.5714 102.919 28.9954 101.791C28.5368 101.8 28.077 101.81 27.5969 101.81L27.5969 101.81ZM18.749 122.844C17.6265 119.569 17.6145 115.791 17.6181 112.726C16.4717 115.091 15.0039 118.394 14.445 120.874C13.9064 123.262 14.0055 126.493 14.0927 129.346C14.1644 131.679 14.2313 133.884 13.9459 135.385C13.7548 136.391 13.3667 137.047 12.9117 137.515C13.4252 139.16 14.5275 141.816 16.7702 144.875C16.7057 143.795 16.6519 142.715 16.6519 141.666C16.6519 137.616 18.0862 130.285 19.6865 125.147C19.3222 124.338 18.9914 123.554 18.749 122.844L18.749 122.844ZM11.4869 142.3C12.3718 143.351 13.4741 144.66 13.9996 146.46C14.2743 147.401 14.4641 148.332 14.6469 149.235C15.1723 151.818 15.5246 153.035 16.4895 153.035L16.6185 152.984C17.2001 152.363 17.0544 149.48 16.9541 147.859C13.7404 144.101 12.1772 140.657 11.438 138.486C11.3783 138.513 11.3209 138.538 11.2636 138.563C10.5172 138.898 10.2115 139.058 10.0992 139.654C9.95474 140.435 10.5041 141.132 11.4869 142.3L11.4869 142.3ZM14.7685 100.652H14.8617C14.8306 100.647 14.8008 100.641 14.7685 100.636V100.652Z" fill="#0C54A0"/>
</svg>
