<svg width="125" height="124" viewBox="0 0 125 124" fill="none" xmlns="http://www.w3.org/2000/svg">
<path d="M118.316 101.261L112.58 98.3932L114.027 96.2228C115.164 94.5174 115.758 92.5277 115.758 90.4866V76.4561C115.758 75.3192 114.828 74.389 113.691 74.389H105.423C99.7123 74.389 95.0872 79.0141 95.0872 84.7245V90.4866C95.0872 92.5279 95.6815 94.5173 96.8184 96.2228L98.2654 98.3932L92.5292 101.261C91.9866 101.546 91.444 101.856 90.9531 102.243C90.4622 101.882 89.9195 101.546 89.3769 101.261L83.6408 98.3932L85.0878 96.2228C86.2247 94.5174 86.8189 92.5277 86.8189 90.4866V76.4561C86.8189 75.3192 85.8887 74.389 84.7518 74.389H76.4835C70.7731 74.389 66.148 79.0141 66.148 84.7245V90.4866C66.148 92.5279 66.7423 94.5173 67.8792 96.2228L69.3261 98.3932L63.59 101.261C63.0474 101.546 62.5048 101.856 62.0139 102.243C61.5229 101.882 60.9803 101.546 60.4377 101.261L54.7016 98.3932L56.1485 96.2228C57.2854 94.5174 57.8797 92.5277 57.8797 90.4866V76.4561C57.8797 75.3192 56.9495 74.389 55.8126 74.389H47.5442C41.8339 74.389 37.2088 79.0141 37.2088 84.7245V90.4866C37.2088 92.5279 37.8031 94.5173 38.94 96.2228L40.3869 98.3932L34.6508 101.261C34.1082 101.546 33.5656 101.856 33.0746 102.243C32.5837 101.882 32.0411 101.546 31.4985 101.261L25.7623 98.3932L27.2093 96.2228C28.3462 94.5174 28.9405 92.5277 28.9405 90.4866V76.4561C28.9405 75.3192 28.0103 74.389 26.8734 74.389H18.605C12.8946 74.389 8.26955 79.0141 8.26955 84.7245V90.4866C8.26955 92.5279 8.86384 94.5173 10.0007 96.2228L11.4477 98.3932L5.71157 101.261C2.19751 102.993 -0.0245521 106.584 0.00119798 110.512V123.999H4.13539V110.512C4.13539 108.16 5.45315 106.016 7.57196 104.956L15.4012 101.029C16.4347 100.512 16.8481 99.2717 16.3314 98.264C16.3055 98.1865 16.2538 98.1089 16.2022 98.0314L13.4375 93.923C12.7656 92.9153 12.4039 91.7009 12.4039 90.4864V86.7914H24.8065V90.4864C24.8065 91.7008 24.4447 92.9152 23.7729 93.923L21.034 98.0314C20.388 98.9875 20.6464 100.254 21.6024 100.9C21.6799 100.951 21.7574 101.003 21.835 101.029L29.6642 104.956C31.7829 105.99 33.1007 108.16 33.1007 110.512V124H37.2349V110.512C37.2349 108.703 36.7698 106.92 35.8655 105.344C36.0722 105.189 36.3047 105.06 36.5373 104.956L44.3665 101.029C45.4 100.512 45.8135 99.2719 45.2967 98.2642C45.2709 98.1867 45.2192 98.1092 45.1675 98.0316L42.377 93.9232C41.7052 92.9155 41.3435 91.7011 41.3435 90.4866V86.7916H53.7461V90.4866C53.7461 91.701 53.3843 92.9154 52.7125 93.9232L49.9735 98.0316C49.3276 98.9877 49.586 100.254 50.542 100.9C50.6195 100.951 50.697 101.003 50.7745 101.029L58.6037 104.956C58.8363 105.086 59.0689 105.215 59.2756 105.344C58.3712 106.92 57.9061 108.677 57.9061 110.486V124H62.0403V110.512C62.0403 108.16 63.3581 106.016 65.4769 104.956L73.3061 101.029C74.3396 100.512 74.753 99.2719 74.2363 98.2642C74.2104 98.1867 74.1588 98.1092 74.1071 98.0317L71.3166 93.9232C70.6448 92.9155 70.2831 91.7011 70.2831 90.4867V86.7916H82.6856V90.4867C82.6856 91.7011 82.3239 92.9154 81.6521 93.9232L78.9131 98.0317C78.2672 98.9877 78.5256 100.254 79.4816 100.9C79.5591 100.952 79.6366 101.003 79.7141 101.029L87.5433 104.957C89.6621 105.99 90.9799 108.16 90.9799 110.512V124H95.1141V110.512C95.1141 108.703 94.649 106.92 93.7446 105.37C93.9513 105.215 94.1839 105.086 94.4164 104.982L102.246 101.055C103.279 100.538 103.693 99.2979 103.176 98.2902C103.15 98.2127 103.098 98.1351 103.047 98.0576L100.256 93.9234C99.5844 92.9157 99.2226 91.7013 99.2226 90.4869V86.7918H111.625V90.4869C111.625 91.7013 111.263 92.9156 110.592 93.9234L107.853 98.0319C107.207 98.9879 107.465 100.254 108.421 100.9C108.499 100.952 108.576 101.003 108.654 101.029L116.483 104.957C118.602 105.99 119.919 108.161 119.919 110.512V124H124.054V110.512C124.054 106.585 121.832 102.993 118.318 101.262L118.316 101.261ZM12.7644 82.6575C13.6429 80.177 15.9943 78.5233 18.604 78.5233H24.8053V82.6575H12.7644ZM41.7037 82.6575C42.5822 80.177 44.9336 78.5233 47.5433 78.5233H53.7446V82.6575H41.7037ZM70.643 82.6575C71.5216 80.177 73.8729 78.5233 76.4826 78.5233H82.6839V82.6575H70.643ZM99.5824 82.6575C100.461 80.177 102.812 78.5233 105.422 78.5233H111.623V82.6575H99.5824Z" fill="#0C54A0"/>
<path d="M35.762 46.4066L36.8214 47.0268C36.9506 47.1043 37.1057 47.1818 37.2349 47.2593C32.6872 54.055 34.5219 63.2277 41.3173 67.7753C43.7461 69.4031 46.6143 70.2558 49.5339 70.2558H50.5158C54.4433 70.2558 58.2158 68.7055 60.9805 65.9149L61.9882 64.9072L62.9959 65.9149C65.7606 68.7053 69.5331 70.2558 73.4606 70.2558H74.4425C82.6074 70.2558 89.2221 63.6411 89.2221 55.4762C89.2221 52.5565 88.3435 49.6883 86.7158 47.2595C86.845 47.182 87 47.1045 87.1292 47.027L88.1886 46.4069C92.4003 43.9781 95.01 39.508 95.01 34.6502C94.9842 29.0948 92.0644 23.927 87.31 21.0591L84.2351 19.1729C86.4314 11.0594 81.5997 2.68783 73.4863 0.517268C72.1943 0.181359 70.8765 0.00049414 69.533 0.00049414H69.0679C66.6391 0.00049414 64.3136 0.956531 62.6082 2.66197C62.4015 2.86868 62.1948 3.10123 62.0139 3.33378C61.833 3.10123 61.6263 2.86868 61.4196 2.66197C59.7143 0.956602 57.3889 -0.025256 54.9599 0.00049414H54.4948C46.0972 -0.0253457 39.2758 6.79616 39.2758 15.2195C39.2758 16.5631 39.4566 17.881 39.7925 19.1727L36.6402 21.059C31.8859 23.9271 28.9662 29.0949 28.9402 34.6501C28.9402 39.5076 31.5499 44.0037 35.7616 46.4067L35.762 46.4066ZM38.7594 24.5989L41.4209 22.9969C41.6018 23.307 41.7827 23.5912 41.9894 23.8754L45.3742 21.5241C41.8859 16.4856 43.1262 9.58671 48.1389 6.0984C49.9993 4.80645 52.2214 4.10882 54.4694 4.10882H54.9345C57.6992 4.10882 59.9213 6.33093 59.9213 9.09559V16.5114H64.0555V9.09559C64.0555 6.33088 66.2776 4.10882 69.0423 4.10882H69.5074C75.6312 4.10882 80.5922 9.06984 80.5922 15.1936C80.5922 17.4674 79.8946 19.6638 78.6026 21.5241L81.9874 23.8755C82.1942 23.5912 82.375 23.2812 82.5559 22.9969L85.2174 24.5989C88.7314 26.7177 90.9018 30.5418 90.9018 34.6502C90.9018 38.035 89.0931 41.1357 86.1474 42.8151L85.088 43.4352C82.6593 44.8305 79.7653 45.0631 77.1556 44.0812L75.7345 47.9569C77.9308 48.7838 80.3078 49.0163 82.6076 48.6288V48.6546C86.3801 53.1765 85.76 59.8944 81.2382 63.6669C79.3261 65.2689 76.8973 66.1474 74.4168 66.1474H73.4349C70.6185 66.1474 67.9055 65.0364 65.8899 63.021L64.0295 61.1606V57.8533H59.8953V61.1349L58.0349 62.9953C56.0453 65.0107 53.3323 66.1217 50.4899 66.1217H49.5081C43.6167 66.1217 38.8626 61.3416 38.8626 55.4762C38.8626 52.9957 39.7412 50.567 41.3432 48.6548V48.629C43.6428 49.0166 46.02 48.784 48.2163 47.9572L46.7952 44.0814C44.1854 45.0633 41.2658 44.8049 38.8627 43.4355L37.8033 42.8153C34.8837 41.1358 33.0748 38.0093 33.049 34.6504C33.0749 30.542 35.2453 26.718 38.7594 24.5992L38.7594 24.5989Z" fill="#0C54A0"/>
<path d="M60.5413 53.1229C61.3423 53.9238 62.6601 53.9238 63.461 53.1229L82.0648 34.519C82.8142 33.7697 82.8658 32.5811 82.2199 31.7543L73.9515 21.4188C73.5639 20.9279 72.9697 20.6437 72.3495 20.6437H51.6786C51.0584 20.6437 50.4642 20.9279 50.0766 21.4188L41.8082 31.7543C41.1622 32.5811 41.2139 33.7697 41.9632 34.519L60.5413 53.1229ZM54.3143 35.1134L57.2857 44.0019L48.3972 35.1134H54.3143ZM75.6311 35.1134L66.7426 44.0019L69.714 35.1134H75.6311ZM65.3474 35.1134L62.0143 45.1129L58.6812 35.1134H65.3474ZM59.456 30.9792L62.014 26.7158L64.572 30.9792H59.456ZM76.3287 30.9792H69.4041L65.6833 24.7779H71.3677L76.3287 30.9792ZM52.6599 24.7779H58.3443L54.6235 30.9792H47.6989L52.6599 24.7779Z" fill="#0C54A0"/>
<path d="M4.13442 33.0473C4.13442 29.6365 6.92488 26.846 10.3357 26.846H19.8186L15.09 31.5746L18.0097 34.4943L26.2781 26.2259C27.0791 25.4249 27.0791 24.1071 26.2781 23.3062L18.0097 15.0378L15.064 17.9835L19.8184 22.7121H10.3355C4.62509 22.7121 0 27.3372 0 33.0476V70.2552H4.13419L4.13442 33.0473Z" fill="#0C54A0"/>
<path d="M113.691 22.7117H104.208L108.936 17.9832L106.017 15.0635L97.7482 23.3319C96.9472 24.1328 96.9472 25.4506 97.7482 26.2515L106.017 34.5199L108.936 31.6002L104.208 26.8459H113.691C117.101 26.8459 119.892 29.6364 119.892 33.0472V70.2549H124.026V33.0472C124.026 27.3368 119.401 22.7117 113.691 22.7117Z" fill="#0C54A0"/>
</svg>
