<svg width="140" height="162" viewBox="0 0 140 162" fill="none" xmlns="http://www.w3.org/2000/svg">
<path d="M129.231 64.8696H126.539C126.508 60.9453 126.616 60.7856 126.468 59.384C124.806 60.6028 123.034 61.6761 121.154 62.568V121.759C121.19 123.306 119.735 124.566 118.219 124.425C102.703 123.091 84.693 126.1 72.693 132.797V91.9081C70.9911 92.2662 69.1222 93.2506 67.3084 93.0367V132.8C55.2687 126.095 37.1967 123.08 21.7822 124.427C20.2666 124.57 18.8111 123.309 18.8471 121.761V60.1889C18.8471 58.8692 19.763 57.7394 21.0551 57.5231C28.4517 56.195 36.0865 56.7033 43.292 58.7935C42.9939 56.9281 42.9038 55.0434 42.9459 53.1578C35.5012 51.2636 27.696 50.8682 20.1117 52.2191C16.2618 52.8922 13.4615 56.2576 13.4615 60.1877V64.873H10.7692C4.82923 64.873 0 69.7022 0 75.6422V140.258C0 146.198 4.82923 151.027 10.7692 151.027H53.8462V153.719C53.8462 158.174 57.4686 161.796 61.9231 161.796H78.0769C82.5314 161.796 86.1538 158.174 86.1538 153.719V151.027H129.231C135.171 151.027 140 146.198 140 140.258V75.6422C140 69.7022 135.171 64.873 129.231 64.873L129.231 64.8696ZM91.1329 131.737C91.5944 131.629 92.0656 131.551 92.5307 131.45C91.729 131.621 90.9334 131.805 90.1425 132C90.4766 131.918 90.7964 131.817 91.1329 131.737L91.1329 131.737ZM85.7532 133.205C86.091 133.099 86.4419 133.019 86.7821 132.918C86.002 133.15 85.2292 133.396 84.4635 133.654C84.8974 133.509 85.3109 133.344 85.7532 133.206V133.205ZM79.3 135.641C80.0319 135.305 80.7699 134.967 81.5416 134.712C80.6557 135.058 79.7892 135.428 78.931 135.813C79.056 135.758 79.175 135.696 79.3 135.641ZM73.6486 138.517C74.639 137.933 75.6606 137.312 76.7363 136.831C75.5319 137.434 74.3625 138.077 73.2313 138.762C73.3696 138.68 73.509 138.599 73.6484 138.517L73.6486 138.517ZM134.615 140.253C134.615 143.222 132.199 145.638 129.23 145.638H10.7686C7.79984 145.638 5.38396 143.222 5.38396 140.253V75.6375C5.38396 72.6688 7.79984 70.2529 10.7686 70.2529H13.4609V121.758C13.3623 126.548 17.5307 129.782 21.979 129.861C20.7747 134.124 22.0776 139.211 25.2003 142.193C26.0849 142.992 27.3109 143.185 28.3504 142.623C41.1126 135.784 55.8926 135.111 68.8704 140.712C68.8199 140.689 68.7815 140.638 68.731 140.612C69.4978 141.011 70.3644 140.967 71.1432 140.703C84.1986 135.122 98.9282 135.804 111.651 142.623C115.798 144.36 118.332 137.096 118.462 133.792C118.516 132.42 118.354 131.074 118.004 129.78C116.135 129.633 114.228 129.546 112.3 129.517C114.205 129.533 116.134 129.67 118.004 129.78C122.518 130.176 126.629 126.247 126.539 121.758V70.253H129.231C132.2 70.253 134.616 72.6689 134.616 75.6376V140.253L134.615 140.253Z" fill="#0C54A0"/>
<path d="M41.3945 106.974C40.6493 105.093 40.0231 103.185 38.5784 101.39C34.7178 96.3973 27.4101 97.9539 26.1553 104.119C25.7827 107.037 25.1902 112.348 29.195 112.138C30.6698 111.945 31.7082 110.592 31.5135 109.12C30.3092 102.407 34.0736 101.975 36.0834 108.181C37.2396 111.987 40.456 116.346 45.0677 116.138C49.3683 116.237 53.1627 112.46 53.1686 108.169C53.1926 106.683 52.0063 105.459 50.5183 105.435C49.0171 105.337 47.808 106.599 47.784 108.085C47.7683 109.055 47.1506 110.038 46.2804 110.474C43.7888 111.638 42.1456 109.165 41.3945 106.975L41.3945 106.974Z" fill="#0C54A0"/>
<path d="M46.5053 64.8911C46.748 74.0028 48.8947 82.9333 53.6806 90.0545C52.3898 93.3982 51.2107 96.7865 50.2046 100.232C49.683 101.921 51.0292 103.706 52.7888 103.679C53.9558 103.679 55.0291 102.917 55.3729 101.742C56.5532 97.6997 57.9546 93.7299 59.5412 89.8379C63.8489 51.5794 97.2458 24.8717 115.769 16.4071C94.3264 27.609 70.8181 55.1456 67.692 87.7117C71.448 86.6889 75.299 85.5687 79.132 84.3007C79.9 84.0483 80.5118 83.4641 80.8014 82.7105C81.4949 80.3896 79.0334 78.2825 78.9925 75.8428C90.2882 83.1733 103.047 74.558 112.236 67.5628C113.908 66.3585 113.468 63.5327 111.505 62.8994C110.059 62.3766 108.642 61.7348 107.238 61.0112C116.899 59.6386 126.315 55.23 131.042 46.2371C133.617 41.6048 135.519 36.6097 136.703 31.3848C137.163 29.5013 135.263 27.6888 133.39 28.1854C131.866 28.5688 130.315 28.6277 128.697 28.5087C137.02 22.7312 139.05 11.0232 134.622 2.16377C134.239 1.2467 133.38 0.61208 132.388 0.520757C117.416 -0.735243 100.536 -0.985244 94.0588 15.0808C93.4614 12.957 93.0299 10.9848 92.9362 8.70691C92.8965 7.83673 92.4398 7.03744 91.7054 6.5639C89.3473 5.3211 87.1707 7.45211 84.7885 8.23097C73.7248 13.4497 65.8076 23.2202 62.9291 34.915C62.5349 33.9606 62.196 32.9775 61.9219 31.9727C61.4075 29.8248 58.3438 29.29 57.1238 31.1289C54.0059 35.5677 51.5287 40.2228 49.7355 45.2455C47.7763 50.748 47.7715 56.7612 49.6357 62.1902C48.0479 61.8885 46.4326 63.2526 46.5022 64.8873L46.5053 64.8911Z" fill="#0C54A0"/>
</svg>
