<svg width="140" height="111" viewBox="0 0 140 111" fill="none" xmlns="http://www.w3.org/2000/svg">
<path d="M135.054 98.2736V91.8194H126.592V85.6115H123.615L120.456 32.4376H120.849C122.459 32.4376 123.766 31.1323 123.766 29.5209C123.766 28.0782 122.717 26.8791 121.341 26.6468H132.322V16.137L127.11 16.1383L70.0025 0L12.8955 16.1383H7.68295V26.648H18.6637C17.2872 26.8829 16.2393 28.0807 16.2393 29.5222C16.2393 31.1335 17.5445 32.4388 19.1559 32.4388H19.5493L16.3904 85.6127H13.4126V91.8206H4.95126V98.2748H0V110.192H140V98.2748L135.054 98.2736ZM89.8292 32.4369C91.4393 32.4369 92.7458 31.1316 92.7458 29.5203C92.7458 28.0776 91.6966 26.8785 90.3214 26.6461H111.736C110.359 26.881 109.311 28.0789 109.311 29.5203C109.311 31.1316 110.617 32.4369 112.228 32.4369H112.621L109.462 85.6108H106.485V91.8188H95.5726V85.6108H92.5948L89.4359 32.4369H89.8292ZM58.8068 32.4369C60.4169 32.4369 61.7234 31.1316 61.7234 29.5203C61.7234 28.0776 60.6742 26.8785 59.2989 26.6461H80.7108C79.3343 26.881 78.2863 28.0789 78.2863 29.5203C78.2863 31.1316 79.5916 32.4369 81.2029 32.4369H81.5964L78.44 85.6108H75.4621V91.8188H64.5501V85.6108H61.5711L58.4121 32.4369H58.8068ZM27.7843 32.4369C29.3944 32.4369 30.701 31.1316 30.701 29.5203C30.701 28.0776 29.6517 26.8785 28.2765 26.6461H49.6909C48.3144 26.881 47.2665 28.0789 47.2665 29.5203C47.2665 31.1316 48.5717 32.4369 50.1831 32.4369H50.5765L47.4176 85.6108H44.4398V91.8188H33.5278V85.6108H30.5499L27.391 32.4369H27.7843Z" fill="#0C54A0"/>
</svg>
