<svg width="140" height="134" viewBox="0 0 140 134" fill="none" xmlns="http://www.w3.org/2000/svg">
<path d="M70.2894 5.98209C66.9524 -9.72096 54.8386 9.73954 33.8352 16.049C12.1873 22.5824 -4.10332 7.4683 0.913967 25.5549C11.5415 63.6626 36.4426 86.0392 53.5762 80.5424C54.9222 80.1218 58.6237 79.3086 59.8854 78.7198C60.9509 69.7187 63.026 59.9602 67.0078 49.8928C70.2325 41.7329 72.7842 42.1533 76.7659 45.7426C77.1866 35.4796 73.8217 22.6646 70.2883 5.98121L70.2894 5.98209ZM24.8621 38.3983C19.5061 39.1274 15.4964 43.4176 15.328 42.296C15.1597 41.1463 18.9172 35.0334 24.3011 34.2763C29.6571 33.5472 34.6203 38.4824 34.7884 39.604C34.9286 40.7537 30.2178 37.6692 24.8618 38.3983L24.8621 38.3983ZM50.6868 63.5793C44.0131 65.6544 35.2643 61.0556 34.4511 58.4477C33.6378 55.8398 41.0686 57.1017 47.7706 55.0266C54.4725 52.9515 60.5294 47.764 61.3426 50.3718C62.1278 52.9797 57.3608 61.5042 50.6871 63.5793H50.6868ZM56.0707 29.2018C51.1917 31.5292 48.6679 36.829 48.1631 35.7915C47.6583 34.7539 49.3969 27.7718 54.2761 25.4444C59.1553 23.117 65.3803 26.3136 65.8851 27.3512C66.3618 28.3887 60.9498 26.8745 56.0707 29.2019V29.2018Z" fill="#0C54A0"/>
<path d="M103.547 68.5151C82.3473 60.6915 78.4496 38.7908 71.579 56.261C57.0817 93.0792 63.4752 125.944 80.4399 131.887C97.4045 137.83 116.333 130.289 138.709 82.4499C145.523 67.8964 124.128 76.1125 103.544 68.5135L103.547 68.5151ZM73.7377 76.3104C73.99 75.1888 77.6354 79.7874 82.9072 80.9934C88.207 82.1711 93.1423 79.4792 92.89 80.6008C92.6377 81.7225 87.3097 86.237 82.0099 85.0595C76.7101 83.8537 73.4854 77.4323 73.7377 76.3106V76.3104ZM100.124 118.989C99.1144 121.513 93.4781 115.849 87.0005 113.241C80.5229 110.633 73.008 111.25 74.0174 108.726C75.0267 106.203 84.1122 102.361 90.6177 104.969C97.0953 107.549 101.133 116.438 100.124 118.99L100.124 118.989ZM122.893 95.4069C122.304 96.3883 115.855 99.0802 111.172 96.3603C106.489 93.6403 105.367 86.5177 105.928 85.5363C106.517 84.5549 108.564 90.0509 113.247 92.771C117.93 95.4912 123.454 94.3974 122.893 95.4068V95.4069Z" fill="#0C54A0"/>
</svg>
