<svg width="546" height="99" viewBox="0 0 546 99" fill="none" xmlns="http://www.w3.org/2000/svg">
<g clip-path="url(#clip0_122_8)">
<path d="M169.178 22.8948H171.209C173.49 28.921 175.608 35.2689 178.222 41.1348C172.506 41.1348 167.951 41.1348 162.234 41.1348C164.391 35.0199 166.855 28.9531 169.178 22.8948V22.8948ZM175.522 39.498L170.191 24.9947L164.813 39.498H175.522ZM189.678 22.5825C191.462 22.5825 193.112 23.0033 194.623 23.8429C196.139 24.6872 197.33 25.8268 198.201 27.2645C199.08 28.7106 199.521 30.287 199.521 31.9973C199.521 33.7039 199.084 35.284 198.213 36.7396C197.352 38.1858 196.182 39.3339 194.701 40.1782C193.22 41.0225 191.613 41.447 189.881 41.447C188.166 41.447 186.564 41.0263 185.075 40.1867C183.585 39.3424 182.407 38.2028 181.541 36.7613C180.675 35.3189 180.242 33.7558 180.242 32.0709C180.242 30.404 180.675 28.8399 181.537 27.3729C182.398 25.9051 183.551 24.74 184.997 23.8778C186.452 23.0165 188.011 22.5825 189.678 22.5825V22.5825ZM189.83 24.3494C188.453 24.3494 187.167 24.7004 185.972 25.4013C184.777 26.1032 183.829 27.0465 183.123 28.2333C182.417 29.42 182.062 30.7011 182.062 32.0794C182.062 33.4388 182.416 34.7039 183.123 35.8774C183.829 37.0547 184.786 37.9868 185.998 38.6754C187.207 39.3641 188.51 39.7065 189.909 39.7065C190.965 39.7065 191.965 39.5113 192.909 39.1169C193.854 38.7235 194.685 38.1736 195.404 37.4585C196.123 36.7434 196.681 35.917 197.079 34.9812C197.477 34.0416 197.677 33.0492 197.677 32.002C197.677 30.6417 197.322 29.3738 196.612 28.1956C195.902 27.0182 194.94 26.0824 193.737 25.39C192.528 24.6966 191.229 24.3504 189.83 24.3504V24.3494ZM211.868 38.432L212.02 39.0773L212.189 38.432L218.568 22.8938H221.405V41.1338H219.56V24.9202L212.71 41.1338H211.147L204.283 24.9202V41.1338H202.464V22.8938H205.274L211.87 38.432H211.868ZM231.984 41.1348V22.8948H233.802V30.9238H243.261V22.8948H245.106V41.1348H243.261V32.5605H233.802V41.1348H231.984ZM247.236 41.1348L255.113 22.8948H257.144L264.956 41.1348H262.99L260.366 35.0029H251.865L249.214 41.1348H247.235H247.236ZM256.257 25.1768L256.126 24.6787L256.001 25.1768L252.589 33.3662H259.643L256.257 25.1768ZM279.694 41.1348H267.118V22.8948H268.936V39.4726H278.395V22.8948H280.24V39.498H281.487V44.9026H279.698L279.695 41.1348H279.694ZM298.514 41.1348H296.695V25.5919L296.569 25.9343L286.458 41.1348H284.639V22.8948H286.458V38.433L286.583 38.0905L296.695 22.8948H298.514V41.1348ZM310.916 22.5825C312.7 22.5825 314.35 23.0033 315.861 23.8429C317.377 24.6872 318.568 25.8268 319.439 27.2645C320.318 28.7106 320.759 30.287 320.759 31.9973C320.759 33.7039 320.322 35.284 319.451 36.7396C318.59 38.1858 317.42 39.3339 315.939 40.1782C314.458 41.0225 312.851 41.447 311.119 41.447C309.404 41.447 307.802 41.0263 306.313 40.1867C304.823 39.3424 303.645 38.2028 302.779 36.7613C301.913 35.3189 301.48 33.7558 301.48 32.0709C301.48 30.404 301.913 28.8399 302.775 27.3729C303.636 25.9051 304.789 24.74 306.235 23.8778C307.69 23.0165 309.249 22.5825 310.916 22.5825V22.5825ZM311.068 24.3494C309.691 24.3494 308.405 24.7004 307.21 25.4013C306.014 26.1032 305.066 27.0465 304.361 28.2333C303.655 29.42 303.299 30.7011 303.299 32.0794C303.299 33.4388 303.654 34.7039 304.361 35.8774C305.066 37.0547 306.024 37.9868 307.236 38.6754C308.445 39.3641 309.747 39.7065 311.146 39.7065C312.203 39.7065 313.204 39.5113 314.147 39.1169C315.092 38.7235 315.924 38.1736 316.642 37.4585C317.36 36.7434 317.92 35.917 318.317 34.9812C318.715 34.0416 318.915 33.0492 318.915 32.002C318.915 30.6417 318.559 29.3738 317.85 28.1956C317.14 27.0182 316.178 26.0824 314.975 25.39C313.766 24.6966 312.467 24.3504 311.068 24.3504V24.3494ZM323.701 41.1348V22.8948H325.52V30.9238H334.978V22.8948H336.823V41.1348H334.978V32.5605H325.52V41.1348H323.701ZM338.953 41.1348L346.83 22.8948H348.861L356.673 41.1348H354.707L352.083 35.0029H343.582L340.931 41.1348H338.952H338.953ZM347.974 25.1768L347.843 24.6787L347.718 25.1768L344.306 33.3662H351.36L347.974 25.1768ZM365.049 24.8174L359.202 41.1348H357.224L364.109 22.8948H366.14L373.151 41.1348H370.943L365.049 24.8174H365.049ZM375.292 41.1348V22.8948H377.11V30.6898H379.583C380.939 30.6898 381.964 30.7596 382.666 30.8936C383.368 31.0275 384.012 31.287 384.597 31.669C385.299 32.1143 385.849 32.7171 386.252 33.4746C386.654 34.2331 386.854 35.051 386.854 35.9302C386.854 36.5151 386.767 37.0736 386.589 37.6019C386.412 38.1302 386.152 38.6113 385.814 39.0396C385.476 39.4726 385.069 39.8405 384.597 40.1443C384.012 40.5169 383.372 40.7763 382.67 40.9197C381.968 41.0622 380.941 41.1367 379.587 41.1367H375.291L375.292 41.1348ZM377.11 39.4716H379.371C380.38 39.4716 381.029 39.4631 381.328 39.4462C382.073 39.3848 382.701 39.2122 383.217 38.9264C383.767 38.6405 384.2 38.2245 384.512 37.684C384.828 37.1425 384.984 36.5576 384.984 35.9302C384.984 35.4416 384.892 34.9774 384.715 34.5407C384.538 34.1076 384.277 33.7303 383.931 33.419C383.589 33.1067 383.19 32.869 382.723 32.7086C382.315 32.5652 381.861 32.4709 381.358 32.4228C380.856 32.3756 380.08 32.3539 379.042 32.3539H377.11V39.4735V39.4716ZM389.453 41.1348V22.8948H391.271V30.9238H400.73V22.8948H402.575V41.1348H400.73V32.5605H391.271V41.1348H389.453ZM406.315 41.1348V22.8948H408.134V30.6898H410.607C411.962 30.6898 412.989 30.7596 413.69 30.8936C414.391 31.0275 415.037 31.287 415.622 31.669C416.323 32.1143 416.873 32.7171 417.275 33.4746C417.678 34.2331 417.878 35.051 417.878 35.9302C417.878 36.5151 417.791 37.0736 417.614 37.6019C417.437 38.1302 417.176 38.6113 416.839 39.0396C416.501 39.4726 416.094 39.8405 415.622 40.1443C415.037 40.5169 414.396 40.7763 413.694 40.9197C412.992 41.0622 411.966 41.1367 410.611 41.1367H406.315V41.1348ZM420.529 41.1348V22.8948H422.348V41.1348H420.529ZM408.135 39.4716H410.395C411.405 39.4716 412.054 39.4631 412.353 39.4462C413.098 39.3848 413.725 39.2122 414.24 38.9264C414.79 38.6405 415.223 38.2245 415.536 37.684C415.852 37.1425 416.007 36.5576 416.007 35.9302C416.007 35.4416 415.916 34.9774 415.739 34.5407C415.561 34.1076 415.301 33.7303 414.955 33.419C414.612 33.1067 414.214 32.869 413.747 32.7086C413.34 32.5652 412.886 32.4709 412.383 32.4228C411.881 32.3756 411.106 32.3539 410.066 32.3539H408.135V39.4735V39.4716ZM424.431 41.1348L430.615 31.8115L424.8 22.8948H426.904L431.759 30.3002L436.561 22.8948H438.692L432.797 31.8115L439.06 41.1348H436.903L431.758 33.2058L426.574 41.1348H424.431V41.1348ZM449.852 31.6728L457.902 22.8948H460.133L452.221 31.6209L460.679 41.1348H458.345L449.853 31.6728H449.852ZM449.773 22.8948V41.1348H447.955V22.8948H449.773V22.8948ZM464.956 41.1348L467.381 35.9859L460.902 22.8948H463.094L468.394 33.8775L473.4 22.8948H475.401L466.999 41.1348H464.955H464.956ZM483.538 24.8174L477.691 41.1348H475.712L482.598 22.8948H484.629L491.64 41.1348H489.432L483.537 24.8174H483.538ZM493.781 41.1348V22.8948H495.599V30.6898H498.072C499.428 30.6898 500.454 30.7596 501.155 30.8936C501.857 31.0275 502.502 31.287 503.087 31.669C503.789 32.1143 504.339 32.7171 504.742 33.4746C505.144 34.2331 505.343 35.051 505.343 35.9302C505.343 36.5151 505.257 37.0736 505.079 37.6019C504.902 38.1302 504.641 38.6113 504.304 39.0396C503.966 39.4726 503.559 39.8405 503.087 40.1443C502.502 40.5169 501.861 40.7763 501.16 40.9197C500.458 41.0622 499.431 41.1367 498.077 41.1367H493.781V41.1348ZM495.599 39.4716H497.86C498.869 39.4716 499.518 39.4631 499.817 39.4462C500.562 39.3848 501.19 39.2122 501.706 38.9264C502.256 38.6405 502.689 38.2245 503.001 37.684C503.317 37.1425 503.473 36.5576 503.473 35.9302C503.473 35.4416 503.381 34.9774 503.204 34.5407C503.026 34.1076 502.766 33.7303 502.42 33.419C502.077 33.1067 501.679 32.869 501.211 32.7086C500.804 32.5652 500.35 32.4709 499.847 32.4228C499.345 32.3756 498.569 32.3539 497.53 32.3539H495.599V39.4735V39.4716ZM510.437 41.1348V24.557H506.262V22.8948H516.404V24.557H512.255V41.1348H510.437V41.1348ZM520.708 41.1348L523.133 35.9859L516.654 22.8948H518.846L524.147 33.8775L529.152 22.8948H531.153L522.751 41.1348H520.707H520.708ZM533.076 41.1348V22.8948H537.871C539.105 22.8948 540.079 22.9684 540.798 23.1108C541.526 23.2627 542.175 23.5221 542.752 23.8863C543.25 24.1985 543.683 24.5834 544.042 25.0466C544.406 25.506 544.684 26.0164 544.874 26.5758C545.065 27.1343 545.16 27.7239 545.16 28.3512C545.16 29.2295 544.983 30.0361 544.627 30.7634C544.271 31.4907 543.756 32.0973 543.081 32.5917C542.691 32.8766 542.275 33.1105 541.825 33.2888C541.379 33.4577 540.873 33.5794 540.306 33.6567C539.746 33.7388 539.089 33.7822 538.326 33.7822H534.897V41.1357H533.078L533.076 41.1348ZM534.895 32.119H538.043C538.974 32.119 539.719 32.0671 540.273 31.9587C540.828 31.8549 541.318 31.669 541.738 31.3955C542.249 31.0747 542.638 30.6464 542.906 30.1097C543.179 29.5729 543.314 28.9748 543.314 28.3257C543.314 27.555 543.119 26.8748 542.725 26.2815C542.331 25.6928 541.772 25.2466 541.054 24.9523C540.395 24.6702 539.451 24.5315 538.222 24.5315H537.867L537.551 24.557H537.257H534.896V32.119H534.895Z" fill="#29272D"/>
<path d="M177.019 77.6743H175.2V62.1332L175.075 62.4757L164.964 77.6752H163.145V59.4361H164.964V74.9734L165.089 74.631L175.2 59.4361H177.019V77.6752V77.6743ZM190.171 74.9725L190.323 75.6177L190.491 74.9725L196.869 59.4352H199.706V77.6743H197.861V61.4616L191.011 77.6743H189.448L182.584 61.4616V77.6743H180.765V59.4352H183.576L190.171 74.9725V74.9725ZM204.071 77.6743V74.5565H205.89V77.6743H204.071ZM218.941 77.6743H217.122V59.4352H226.375V61.0984H218.941V77.6743ZM229.048 77.6743V74.5565H230.867V77.6743H229.048ZM233.729 76.0375H234.929L241.295 59.4352H243.326L249.609 76.0375H250.878V81.4411H249.059V77.6733H235.523V81.4411H233.731V76.0375H233.729ZM247.638 76.0375L242.307 61.5351L236.929 76.0375H247.638V76.0375ZM253.76 77.6743V74.5565H255.579V77.6743H253.76ZM266.457 67.8623C267.453 67.9491 268.224 68.1482 268.764 68.4595C269.41 68.8151 269.925 69.3604 270.306 70.0962C270.691 70.8235 270.886 71.6122 270.886 72.4565C270.886 73.132 270.761 73.7904 270.505 74.4357C270.193 75.1894 269.764 75.83 269.223 76.363C268.681 76.896 268.054 77.2979 267.335 77.5752C266.616 77.8479 265.829 77.9865 264.962 77.9865C264.035 77.9865 263.217 77.8526 262.516 77.5799C261.823 77.329 261.186 76.9083 260.602 76.3243C260.025 75.7828 259.593 75.164 259.294 74.4583C259.09 73.9782 258.956 73.2584 258.891 72.3018H260.779V72.5829C260.779 73.2414 260.969 73.8602 261.351 74.4319C261.732 74.9989 262.238 75.4536 262.875 75.7913C263.516 76.129 264.196 76.2979 264.919 76.2979C265.686 76.2979 266.383 76.1328 267.006 75.8045C267.626 75.4753 268.114 75.0159 268.474 74.4319C268.833 73.8518 269.015 73.2065 269.015 72.5046C269.015 71.7556 268.803 71.0717 268.379 70.4651C267.959 69.8547 267.4 69.4387 266.707 69.2094C265.993 68.9623 264.781 68.8415 263.061 68.8415V67.1793H263.278C264.17 67.1793 264.854 67.1406 265.33 67.0576C265.806 66.9793 266.226 66.8369 266.582 66.6331C267.046 66.3775 267.413 66.0095 267.681 65.5246C267.946 65.035 268.08 64.5068 268.08 63.9313C268.08 63.3162 267.932 62.7625 267.642 62.2766C267.348 61.7917 266.936 61.4106 266.399 61.1418C265.858 60.8691 265.243 60.7352 264.55 60.7352C263.805 60.7352 263.165 60.8993 262.633 61.2295C262.33 61.4238 262.073 61.6625 261.87 61.9399C261.653 62.204 261.494 62.4596 261.399 62.7144C261.3 62.9653 261.217 63.3549 261.148 63.8794H259.359C259.403 63.3209 259.485 62.8313 259.615 62.4078C259.757 61.9446 260 61.4899 260.351 61.0389C260.697 60.5842 261.083 60.2248 261.516 59.9607C262.395 59.3843 263.43 59.0994 264.625 59.0994C265.612 59.0994 266.513 59.3116 267.323 59.7314C268.137 60.1474 268.769 60.7276 269.229 61.4719C269.675 62.2078 269.9 63.0266 269.9 63.9313C269.9 64.8105 269.736 65.5379 269.407 66.1143C269.22 66.4435 268.982 66.7293 268.688 66.9755C268.207 67.3482 267.463 67.6425 266.458 67.8633L266.457 67.8623ZM271.874 77.6743L279.751 59.4352H281.782L289.594 77.6743H287.628L285.004 71.5424H276.503L273.853 77.6743H271.874V77.6743ZM280.893 61.7172L280.763 61.2191L280.638 61.7172L277.226 69.9056H284.279L280.893 61.7172ZM291.753 77.6743V59.4352H296.027C297.893 59.4352 299.283 59.721 300.197 60.2965C300.851 60.7031 301.366 61.2663 301.747 61.9946C302.133 62.7304 302.328 63.4973 302.328 64.2898C302.328 64.9567 302.172 65.5888 301.86 66.1907C301.699 66.5199 301.453 66.8359 301.115 67.1435C300.691 67.4812 300.041 67.7406 299.162 67.9274C300.014 68.0312 300.681 68.2217 301.163 68.4991C301.609 68.7462 301.994 69.066 302.314 69.4651C302.644 69.8717 302.895 70.3264 303.063 70.8339C303.232 71.3443 303.314 71.882 303.314 72.449C303.314 73.0376 303.228 73.6008 303.05 74.1291C302.873 74.6574 302.613 75.1423 302.275 75.58C301.937 76.013 301.53 76.3809 301.058 76.6837C300.473 77.0564 299.832 77.3158 299.131 77.4592C298.429 77.6016 297.403 77.6762 296.048 77.6762H291.752L291.753 77.6743ZM293.572 76.0111H295.833C296.842 76.0111 297.491 76.0026 297.79 75.9856C298.535 75.9243 299.163 75.7517 299.679 75.4659C300.229 75.18 300.662 74.764 300.974 74.2234C301.29 73.6819 301.446 73.0971 301.446 72.4697C301.446 71.9801 301.355 71.5169 301.178 71.0792C301 70.6462 300.74 70.2688 300.394 69.9575C300.051 69.6453 299.653 69.4075 299.185 69.2481C298.779 69.1047 298.324 69.0094 297.821 68.9623C297.319 68.9151 296.544 68.8934 295.504 68.8934H293.573V76.0121L293.572 76.0111ZM293.572 67.2293H295.551C296.517 67.2293 297.24 67.1859 297.725 67.1038C298.215 67.0255 298.643 66.8831 299.007 66.6708C299.465 66.4284 299.826 66.0775 300.085 65.619C300.358 65.1643 300.492 64.6794 300.492 64.1643C300.492 63.6756 300.358 63.1983 300.093 62.7313C299.825 62.2681 299.474 61.904 299.032 61.6446C298.767 61.4851 298.465 61.3502 298.118 61.2512C297.829 61.1776 297.564 61.1295 297.321 61.1163C297.083 61.1031 296.542 61.0993 295.706 61.0993H293.571V67.2312L293.572 67.2293ZM314.57 59.1229C316.354 59.1229 318.004 59.5437 319.515 60.3833C321.031 61.2276 322.221 62.3672 323.091 63.8039C323.97 65.2501 324.412 66.8265 324.412 68.5368C324.412 70.2434 323.974 71.8235 323.104 73.2782C322.242 74.7244 321.073 75.8724 319.592 76.7168C318.111 77.5611 316.505 77.9856 314.773 77.9856C313.057 77.9856 311.456 77.5658 309.966 76.7253C308.476 75.8809 307.298 74.7423 306.432 73.2999C305.566 71.8584 305.133 70.2953 305.133 68.6104C305.133 66.9435 305.566 65.3803 306.428 63.9124C307.29 62.4445 308.443 61.2795 309.888 60.4182C311.342 59.5569 312.902 59.1229 314.569 59.1229H314.57ZM314.722 60.8899C313.344 60.8899 312.058 61.2408 310.863 61.9417C309.668 62.6436 308.72 63.587 308.014 64.7737C307.309 65.9605 306.953 67.2416 306.953 68.6189C306.953 69.9783 307.309 71.2433 308.014 72.4169C308.72 73.5952 309.677 74.5263 310.89 75.2149C312.097 75.9036 313.401 76.2451 314.8 76.2451C315.856 76.2451 316.856 76.0507 317.801 75.6564C318.745 75.2621 319.576 74.7121 320.295 73.998C321.014 73.2838 321.572 72.4565 321.97 71.5207C322.369 70.5811 322.568 69.5896 322.568 68.5415C322.568 67.1812 322.212 65.9133 321.503 64.735C320.792 63.5568 319.831 62.6219 318.627 61.9295C317.419 61.237 316.12 60.8899 314.722 60.8899V60.8899ZM333.567 61.3578L327.721 77.6743H325.742L332.627 59.4352H334.658L341.668 77.6743H339.46L333.566 61.3578H333.567ZM352.465 59.1229C354.249 59.1229 355.899 59.5437 357.41 60.3833C358.926 61.2276 360.116 62.3672 360.987 63.8039C361.866 65.2501 362.308 66.8265 362.308 68.5368C362.308 70.2434 361.87 71.8235 361 73.2782C360.139 74.7244 358.969 75.8724 357.488 76.7168C356.007 77.5611 354.402 77.9856 352.669 77.9856C350.954 77.9856 349.352 77.5658 347.862 76.7253C346.373 75.8809 345.194 74.7423 344.328 73.2999C343.462 71.8584 343.029 70.2953 343.029 68.6104C343.029 66.9435 343.462 65.3803 344.324 63.9124C345.186 62.4445 346.338 61.2795 347.784 60.4182C349.238 59.5569 350.798 59.1229 352.465 59.1229ZM352.617 60.8899C351.239 60.8899 349.954 61.2408 348.758 61.9417C347.563 62.6436 346.615 63.587 345.908 64.7737C345.203 65.9605 344.848 67.2416 344.848 68.6189C344.848 69.9783 345.203 71.2433 345.908 72.4169C346.615 73.5952 347.572 74.5263 348.784 75.2149C349.992 75.9036 351.295 76.2451 352.694 76.2451C353.751 76.2451 354.751 76.0507 355.695 75.6564C356.639 75.2621 357.47 74.7121 358.189 73.998C358.908 73.2838 359.466 72.4565 359.865 71.5207C360.263 70.5811 360.462 69.5896 360.462 68.5415C360.462 67.1812 360.107 65.9133 359.397 64.735C358.686 63.5568 357.725 62.6219 356.521 61.9295C355.314 61.237 354.015 60.8899 352.616 60.8899H352.617ZM367.145 68.2123L375.194 59.4352H377.424L369.513 68.1604L377.971 77.6743H375.637L367.145 68.2123V68.2123ZM367.066 59.4352V77.6743H365.247V59.4352H367.066ZM393.888 77.6743H392.069V62.1332L391.944 62.4757L381.833 77.6752H380.014V59.4361H381.833V74.9734L381.958 74.631L392.069 59.4361H393.888V77.6752V77.6743ZM397.634 77.6743V59.4352H399.453V67.4633H408.91V59.4352H410.755V77.6743H408.91V69.1H399.453V77.6743H397.634ZM412.886 77.6743L420.763 59.4352H422.794L430.606 77.6743H428.64L426.015 71.5424H417.515L414.865 77.6743H412.886V77.6743ZM421.905 61.7172L421.775 61.2191L421.65 61.7172L418.237 69.9056H425.291L421.905 61.7172Z" fill="#29272D"/>
<path fill-rule="evenodd" clip-rule="evenodd" d="M69.0177 14.0054C88.3464 14.0054 104.016 29.6889 104.016 49.0364C104.016 68.383 88.3464 84.0675 69.0177 84.0675C49.689 84.0675 34.0197 68.384 34.0197 49.0364C34.0197 29.6899 49.689 14.0054 69.0177 14.0054V14.0054ZM19.9814 49.0364C19.9814 76.1186 41.9355 98.0727 69.0177 98.0727C96.0999 98.0727 118.054 76.1186 118.054 49.0364C118.054 21.9542 96.0999 0.000183105 69.0177 0.000183105C41.9355 0.000183105 19.9814 21.9542 19.9814 49.0364V49.0364Z" fill="#CDCDCE"/>
<path fill-rule="evenodd" clip-rule="evenodd" d="M28.6388 37.3311L57.2775 77.6686H0L28.6388 37.3311Z" fill="#FCC446"/>
<path fill-rule="evenodd" clip-rule="evenodd" d="M139.281 21.8948V77.9044H83.1382V21.8957L111.209 51.0128L139.281 21.8948Z" fill="#27438B"/>
</g>
<defs>
<clipPath id="clip0_122_8">
<rect width="545.159" height="98.0719" fill="white"/>
</clipPath>
</defs>
</svg>
