<svg width="1279" height="152" viewBox="0 0 1279 152" fill="none" xmlns="http://www.w3.org/2000/svg">
<path fill-rule="evenodd" clip-rule="evenodd" d="M256.163 151.514C249.594 141.414 241.495 133.701 233.504 125.819C247.387 131.915 260.869 139.391 273 151.514H256.163Z" fill="#A2D9F7"/>
<path fill-rule="evenodd" clip-rule="evenodd" d="M128.788 104.456C110.525 115.893 88.7203 126.741 70.6461 116.845C56.8746 109.304 63.5237 80.0625 87.1265 96.5712C100.895 106.202 113.791 111.698 128.788 104.456Z" fill="#F5B5D2"/>
<path fill-rule="evenodd" clip-rule="evenodd" d="M182.975 106.825C162.089 103.384 124.302 117.572 113.064 138.219C110.528 142.878 110.714 147.744 112.56 151.514H134.335C136.208 149.16 138.006 146.124 139.64 142.287C147.035 124.925 163.077 107.701 182.975 106.825V106.825Z" fill="#7E71B1"/>
<path fill-rule="evenodd" clip-rule="evenodd" d="M63.6417 89.9909C55.8944 82.3294 50.0632 62.6813 54.9168 52.1804C58.6151 44.1792 72.7216 48.3363 64.6509 62.0169C59.9429 69.9974 60.2002 81.14 63.6417 89.9909V89.9909Z" fill="#F7AA47"/>
<path fill-rule="evenodd" clip-rule="evenodd" d="M29.1692 53.1065C31.8419 37.0738 22.5753 9.09789 8.4691 1.60611C5.56511 0.0637235 2.51075 0.25213 -0.00031848 1.50553V19.1976C1.43443 20.2082 3.17886 21.1525 5.28174 21.9906C17.1729 26.7302 25.9305 39.7416 29.1692 53.1062V53.1065Z" fill="#FECC00"/>
<path fill-rule="evenodd" clip-rule="evenodd" d="M109.788 118.006C73.621 156.072 35.7119 130.815 26.2662 105.569C20.917 91.2726 25.7401 76.5015 35.7567 71.9457C45.7736 67.39 59.9623 85.4654 56.9553 101.136C52.6703 123.464 85.2752 136.821 109.788 118.006V118.006Z" fill="#F08683"/>
<path fill-rule="evenodd" clip-rule="evenodd" d="M100.796 129.779C88.3606 142.192 74.7176 148.99 61.0056 151.514H35.2347C22.5811 149.289 10.5119 143.975 -5.6835e-05 136.704V32.6744C15.2976 39.5517 23.1236 64.8829 19.7419 85.5079C13.3127 124.722 56.7604 167.729 100.796 129.779V129.779Z" fill="#E51A4B"/>
<path fill-rule="evenodd" clip-rule="evenodd" d="M108.07 146.856C107.496 148.431 107.011 149.984 106.612 151.514H107.234C107.417 150.016 107.69 148.465 108.07 146.856Z" fill="#A82682"/>
<path fill-rule="evenodd" clip-rule="evenodd" d="M108.647 147.563C108.676 148.939 108.784 150.254 108.959 151.514H109.132C108.908 150.295 108.743 148.982 108.647 147.563ZM155.938 151.514C153.801 144.635 146.537 140.962 139.343 151.514H155.938Z" fill="#CB5499"/>
<path fill-rule="evenodd" clip-rule="evenodd" d="M145.975 104.543C117.89 111.473 99.7864 130.497 89.9644 151.514H102.207C106.742 129.879 125.212 112.358 145.975 104.543Z" fill="#A82682"/>
<path fill-rule="evenodd" clip-rule="evenodd" d="M245.662 151.514C231.25 125.116 207.58 107.987 185.758 112.617C172.358 115.46 151.056 123.75 155.449 135.899C167.451 169.094 197.893 118.035 233.868 151.514H245.662Z" fill="#A2D9F7"/>
<path fill-rule="evenodd" clip-rule="evenodd" d="M1252.68 29.9999C1280.41 63.2949 1254.75 144.321 1197.65 150.396C1178.08 152.479 1160.96 140.633 1164.46 126.532C1168.81 108.935 1186.74 113.843 1201.16 115.952C1220.81 118.827 1236.46 113.522 1251.51 95.4948C1263.87 80.6943 1262.09 42.9461 1252.68 29.9999L1252.68 29.9999Z" fill="#008DD2"/>
<path fill-rule="evenodd" clip-rule="evenodd" d="M1260.46 152.258C1254.98 137.64 1253.69 122.859 1258.2 107.853C1249.85 120.802 1244.01 135.111 1243.42 152.258L1260.46 152.258Z" fill="#0C54A0"/>
<path fill-rule="evenodd" clip-rule="evenodd" d="M1228.36 152.258C1230.99 147.104 1235.83 139.303 1240.05 132.681C1237.97 141.836 1235.01 147.844 1233.65 152.258L1228.36 152.258Z" fill="#0C54A0"/>
<path fill-rule="evenodd" clip-rule="evenodd" d="M1278.25 117.083C1273.43 107.06 1269.63 94.9945 1267.12 79.9015C1256.06 116.241 1263.58 135.899 1271.53 152.258L1278.25 152.258L1278.25 117.083L1278.25 117.083Z" fill="#0C54A0"/>
<path fill-rule="evenodd" clip-rule="evenodd" d="M1278.25 67.9627C1271.82 58.059 1267.35 48.3176 1264.97 40.9153C1265.24 60.5942 1269.45 80.0987 1278.25 98.4598L1278.25 67.9627V67.9627Z" fill="#008DD2"/>
<path fill-rule="evenodd" clip-rule="evenodd" d="M1246.26 95.7058C1231.77 104.777 1218.97 112.237 1200.92 108.006C1187.84 104.938 1189.93 81.159 1209.8 94.3074C1221.95 102.349 1228.81 101.043 1246.26 95.7055L1246.26 95.7058Z" fill="#A2D9F7"/>
</svg>
