<svg width="115" height="122" viewBox="0 0 115 122" fill="none" xmlns="http://www.w3.org/2000/svg">
<path fill-rule="evenodd" clip-rule="evenodd" d="M88.6844 -7.25411e-05C116.412 33.2949 90.7523 114.321 33.6525 120.396C14.0805 122.479 -3.03706 110.633 0.455627 96.5323C4.81456 78.9347 22.7436 83.8435 37.1582 85.9519C56.806 88.8266 72.4622 83.5219 87.515 65.4948C99.874 50.6943 98.0861 12.9461 88.684 -7.25411e-05L88.6844 -7.25411e-05Z" fill="#008DD2"/>
<path fill-rule="evenodd" clip-rule="evenodd" d="M96.4617 122.258C90.9804 107.64 89.6942 92.8595 94.2047 77.8529C85.8518 90.802 80.0108 105.111 79.4165 122.258L96.4617 122.258Z" fill="#0C54A0"/>
<path fill-rule="evenodd" clip-rule="evenodd" d="M64.3594 122.258C66.989 117.104 71.8275 109.303 76.0465 102.681C73.968 111.836 71.0125 117.844 69.6509 122.258L64.3594 122.258Z" fill="#0C54A0"/>
<path fill-rule="evenodd" clip-rule="evenodd" d="M114.25 87.0829C109.431 77.0605 105.633 64.9945 103.122 49.9015C92.0579 86.2412 99.585 105.899 107.533 122.258L114.25 122.258L114.25 87.0832L114.25 87.0829Z" fill="#0C54A0"/>
<path fill-rule="evenodd" clip-rule="evenodd" d="M114.251 37.9627C107.815 28.059 103.345 18.3176 100.97 10.9153C101.236 30.5942 105.447 50.0987 114.251 68.4598L114.251 37.9627Z" fill="#008DD2"/>
<path fill-rule="evenodd" clip-rule="evenodd" d="M82.2562 65.7058C67.7701 74.7766 54.9666 82.2373 36.9249 78.0062C23.838 74.9377 25.9304 51.159 45.801 64.3074C57.9534 72.3486 64.8103 71.0428 82.2562 65.7055L82.2562 65.7058Z" fill="#A2D9F7"/>
</svg>
