<svg width="152" height="143" viewBox="0 0 152 143" fill="none" xmlns="http://www.w3.org/2000/svg">
<path fill-rule="evenodd" clip-rule="evenodd" d="M-2.08785e-05 31.7854C41.3946 -2.68691 142.132 29.2144 149.685 100.205C152.274 124.538 137.546 145.82 120.016 141.477C98.137 136.058 104.24 113.767 106.861 95.8463C110.435 71.4188 103.84 51.9539 81.4276 33.2392C63.0266 17.8737 16.0955 20.0966 -2.08785e-05 31.7858L-2.08785e-05 31.7854Z" fill="#008DD2"/>
<path fill-rule="evenodd" clip-rule="evenodd" d="M152 22.1163C133.826 28.931 115.449 30.5301 96.7922 24.9224C112.891 35.3074 130.681 42.5692 152 43.3081L152 22.1163Z" fill="#0C54A0"/>
<path fill-rule="evenodd" clip-rule="evenodd" d="M152 62.0279C145.592 58.7586 135.893 52.7429 127.661 47.4977C139.042 50.0817 146.512 53.7562 152 55.4491L152 62.0279Z" fill="#0C54A0"/>
<path fill-rule="evenodd" clip-rule="evenodd" d="M108.268 2.4787e-05C95.807 5.9912 80.8058 10.7139 62.0411 13.8354C107.221 27.5913 131.661 18.2331 152 8.3519L152 2.86102e-05L108.268 2.47871e-05L108.268 2.4787e-05Z" fill="#0C54A0"/>
<path fill-rule="evenodd" clip-rule="evenodd" d="M47.1979 8.06086e-05C34.8849 8.00082 22.7738 13.558 13.5707 16.511C38.0369 16.1808 62.2863 10.9447 85.114 8.39233e-05L47.1979 8.06086e-05Z" fill="#008DD2"/>
<path fill-rule="evenodd" clip-rule="evenodd" d="M81.69 39.7774C92.9675 57.7876 102.243 73.7058 96.9827 96.1364C93.1678 112.407 63.6045 109.805 79.9514 85.101C89.9488 69.9924 88.3254 61.4674 81.6896 39.7774L81.69 39.7774Z" fill="#A2D9F7"/>
</svg>
