<svg width="87" height="25" viewBox="0 0 87 25" fill="none" xmlns="http://www.w3.org/2000/svg">
<path d="M0 24V1.15625H3.75V20.8125H13.4531V24H0ZM37.6875 12.5469C37.6875 14.3073 37.4635 15.9115 37.0156 17.3594C36.5781 18.7969 35.9167 20.0365 35.0312 21.0781C34.1458 22.1094 33.0365 22.9062 31.7031 23.4688C30.3698 24.0312 28.8073 24.3125 27.0156 24.3125C25.1927 24.3125 23.6094 24.0312 22.2656 23.4688C20.9323 22.9062 19.8229 22.1042 18.9375 21.0625C18.0625 20.0208 17.4062 18.776 16.9688 17.3281C16.5312 15.8802 16.3125 14.276 16.3125 12.5156C16.3125 10.1615 16.6979 8.10938 17.4688 6.35938C18.25 4.59896 19.4323 3.23438 21.0156 2.26562C22.6094 1.28646 24.6198 0.796875 27.0469 0.796875C29.4219 0.796875 31.3958 1.28125 32.9688 2.25C34.5417 3.21875 35.7188 4.58333 36.5 6.34375C37.2917 8.09375 37.6875 10.1615 37.6875 12.5469ZM20.25 12.5469C20.25 14.3073 20.4896 15.8333 20.9688 17.125C21.4479 18.4062 22.1823 19.3958 23.1719 20.0938C24.1719 20.7812 25.4531 21.125 27.0156 21.125C28.5885 21.125 29.8698 20.7812 30.8594 20.0938C31.849 19.3958 32.5781 18.4062 33.0469 17.125C33.5156 15.8333 33.75 14.3073 33.75 12.5469C33.75 9.86979 33.2135 7.77604 32.1406 6.26562C31.0781 4.74479 29.3802 3.98438 27.0469 3.98438C25.4844 3.98438 24.1979 4.32812 23.1875 5.01562C22.1875 5.70312 21.4479 6.6875 20.9688 7.96875C20.4896 9.23958 20.25 10.7656 20.25 12.5469ZM51.8125 11.5938H60.3438V23.0625C59.1458 23.4583 57.9062 23.7656 56.625 23.9844C55.3438 24.2031 53.9062 24.3125 52.3125 24.3125C49.9896 24.3125 48.0208 23.8542 46.4062 22.9375C44.8021 22.0104 43.5833 20.6719 42.75 18.9219C41.9167 17.1615 41.5 15.0417 41.5 12.5625C41.5 10.1771 41.9635 8.10938 42.8906 6.35938C43.8177 4.59896 45.1667 3.23958 46.9375 2.28125C48.7083 1.3125 50.8542 0.828125 53.375 0.828125C54.6146 0.828125 55.8125 0.953125 56.9688 1.20312C58.1354 1.44271 59.2031 1.77604 60.1719 2.20312L58.8594 5.29688C58.0885 4.93229 57.224 4.625 56.2656 4.375C55.3073 4.125 54.3125 4 53.2812 4C51.6458 4 50.2344 4.35417 49.0469 5.0625C47.8698 5.77083 46.9635 6.77083 46.3281 8.0625C45.6927 9.34375 45.375 10.8594 45.375 12.6094C45.375 14.3073 45.6302 15.7969 46.1406 17.0781C46.651 18.3594 47.4479 19.3594 48.5312 20.0781C49.625 20.7865 51.0365 21.1406 52.7656 21.1406C53.6302 21.1406 54.3646 21.0938 54.9688 21C55.5729 20.9062 56.1302 20.8021 56.6406 20.6875V14.7969H51.8125V11.5938ZM86.0938 12.5469C86.0938 14.3073 85.8698 15.9115 85.4219 17.3594C84.9844 18.7969 84.3229 20.0365 83.4375 21.0781C82.5521 22.1094 81.4427 22.9062 80.1094 23.4688C78.776 24.0312 77.2135 24.3125 75.4219 24.3125C73.599 24.3125 72.0156 24.0312 70.6719 23.4688C69.3385 22.9062 68.2292 22.1042 67.3438 21.0625C66.4688 20.0208 65.8125 18.776 65.375 17.3281C64.9375 15.8802 64.7188 14.276 64.7188 12.5156C64.7188 10.1615 65.1042 8.10938 65.875 6.35938C66.6562 4.59896 67.8385 3.23438 69.4219 2.26562C71.0156 1.28646 73.026 0.796875 75.4531 0.796875C77.8281 0.796875 79.8021 1.28125 81.375 2.25C82.9479 3.21875 84.125 4.58333 84.9062 6.34375C85.6979 8.09375 86.0938 10.1615 86.0938 12.5469ZM68.6562 12.5469C68.6562 14.3073 68.8958 15.8333 69.375 17.125C69.8542 18.4062 70.5885 19.3958 71.5781 20.0938C72.5781 20.7812 73.8594 21.125 75.4219 21.125C76.9948 21.125 78.276 20.7812 79.2656 20.0938C80.2552 19.3958 80.9844 18.4062 81.4531 17.125C81.9219 15.8333 82.1562 14.3073 82.1562 12.5469C82.1562 9.86979 81.6198 7.77604 80.5469 6.26562C79.4844 4.74479 77.7865 3.98438 75.4531 3.98438C73.8906 3.98438 72.6042 4.32812 71.5938 5.01562C70.5938 5.70312 69.8542 6.6875 69.375 7.96875C68.8958 9.23958 68.6562 10.7656 68.6562 12.5469Z" fill="black"/>
</svg>
