<svg width="1280" height="259" viewBox="0 0 1280 259" fill="none" xmlns="http://www.w3.org/2000/svg">
<path fill-rule="evenodd" clip-rule="evenodd" d="M0.000610352 31.1995C35.7075 40.8131 71.8136 43.069 108.471 35.1581C76.8396 49.8083 41.887 60.0526 0.000610352 61.095V31.1995Z" fill="#0C54A0"/>
<path fill-rule="evenodd" clip-rule="evenodd" d="M0.000610352 87.5033C12.5899 82.8913 31.6471 74.405 47.8212 67.0054C25.4596 70.6508 10.7823 75.8344 0.000610352 78.2226V87.5033Z" fill="#0C54A0"/>
<path fill-rule="evenodd" clip-rule="evenodd" d="M85.9246 7.40774e-05C110.407 8.45188 139.881 15.1143 176.749 19.5177C87.9807 38.9233 39.9618 25.7216 0 11.7821V7.40774e-05H85.9238H85.9246Z" fill="#0C54A0"/>
<path fill-rule="evenodd" clip-rule="evenodd" d="M205.913 0.000106235C230.105 11.2868 253.9 19.1264 271.983 23.2923C223.912 22.8264 176.267 15.4398 131.416 0.000106235H205.913V0.000106235Z" fill="#008DD2"/>
<path fill-rule="evenodd" clip-rule="evenodd" d="M505.111 0.000145578C524.982 21.9361 549.481 38.6896 573.655 55.8079C531.657 42.5687 490.874 26.3297 454.179 0.000145578H505.111Z" fill="#A2D9F7"/>
<path fill-rule="evenodd" clip-rule="evenodd" d="M190.442 42.4739C157.786 34.2247 129.54 28.1471 106.083 51.7331C89.0663 68.8404 118.69 119.025 135.116 74.539C145.162 47.3325 157.308 44.7221 190.443 42.4746L190.442 42.4739Z" fill="#A2D9F7"/>
<path fill-rule="evenodd" clip-rule="evenodd" d="M890.42 102.207C945.663 77.3654 1011.62 53.8056 1066.3 75.2997C1107.96 91.6778 1087.84 155.188 1016.44 119.332C974.795 98.4153 935.783 86.4787 890.42 102.207Z" fill="#F5B5D2"/>
<path fill-rule="evenodd" clip-rule="evenodd" d="M726.504 97.062C789.683 104.534 903.986 73.7194 937.981 28.8765C945.653 18.7571 945.091 8.18729 939.506 8.24557e-05H873.637C867.973 5.11178 862.535 11.7065 857.59 20.0414C835.22 57.7505 786.694 95.1587 726.504 97.062V97.062Z" fill="#7E71B1"/>
<path fill-rule="evenodd" clip-rule="evenodd" d="M947.893 72.7767C1057.3 -9.89898 1171.97 44.9568 1200.54 99.7887C1216.73 130.84 1202.14 162.922 1171.84 172.817C1141.54 182.712 1098.61 143.453 1107.71 109.418C1120.67 60.9233 1022.04 31.9127 947.893 72.7767V72.7767Z" fill="#F08683"/>
<path fill-rule="evenodd" clip-rule="evenodd" d="M975.094 47.2066C1012.71 20.2458 1053.98 5.48236 1095.46 0.000220537H1173.42C1211.69 4.83255 1248.2 16.3746 1280 32.1663V258.112C1233.72 243.175 1210.05 188.157 1220.28 143.361C1239.73 58.1906 1108.3 -35.2174 975.094 47.2073V47.2066Z" fill="#E51A4B"/>
<path fill-rule="evenodd" clip-rule="evenodd" d="M808.291 2.95639e-05C814.755 14.9407 836.728 22.9181 858.491 2.95639e-05H808.291Z" fill="#CB5499"/>
<path fill-rule="evenodd" clip-rule="evenodd" d="M838.428 102.018C923.384 86.9654 978.148 45.6484 1007.86 7.06615e-05H970.827C957.108 46.9893 901.238 85.0449 838.428 102.018Z" fill="#A82682"/>
<path fill-rule="evenodd" clip-rule="evenodd" d="M536.875 0.000227995C580.471 57.3353 652.073 94.5386 718.083 84.4826C758.617 78.307 823.056 60.3019 809.768 33.9139C773.463 -38.1827 681.375 72.7141 572.551 0.000227995H536.875Z" fill="#A2D9F7"/>
</svg>
