<svg width="1280" height="328" viewBox="0 0 1280 328" fill="none" xmlns="http://www.w3.org/2000/svg">
<path fill-rule="evenodd" clip-rule="evenodd" d="M297.113 283.085C215.654 331.706 17.4181 286.711 2.55592 186.583C-2.53936 152.262 26.4421 122.245 60.9402 128.37C103.994 136.014 91.9842 167.453 86.8259 192.73C79.7926 227.184 92.771 254.638 136.876 281.034C173.086 302.707 265.439 299.572 297.113 283.085Z" fill="#008DD2"/>
<path fill-rule="evenodd" clip-rule="evenodd" d="M-1.99939 296.723C33.7633 287.111 69.9258 284.856 106.64 292.765C74.9596 278.118 39.9525 267.875 -1.99939 266.833V296.723Z" fill="#0C54A0"/>
<path fill-rule="evenodd" clip-rule="evenodd" d="M-1.99939 240.43C10.6096 245.041 29.6965 253.525 45.8959 260.924C23.4994 257.279 8.79916 252.096 -1.99939 249.709V240.43Z" fill="#0C54A0"/>
<path fill-rule="evenodd" clip-rule="evenodd" d="M84.0589 327.917C108.579 319.466 138.099 312.805 175.025 308.403C86.1182 289.001 38.0242 302.2 -2 316.137V327.917H84.0581H84.0589Z" fill="#0C54A0"/>
<path fill-rule="evenodd" clip-rule="evenodd" d="M204.234 327.917C228.464 316.632 252.297 308.794 270.408 304.629C222.262 305.094 174.543 312.48 129.621 327.917H204.234V327.917Z" fill="#008DD2"/>
<path fill-rule="evenodd" clip-rule="evenodd" d="M503.9 327.917C523.802 305.985 548.34 289.234 572.551 272.119C530.488 285.356 489.641 301.592 452.889 327.917H503.9Z" fill="#A2D9F7"/>
<path fill-rule="evenodd" clip-rule="evenodd" d="M136.359 271.813C114.167 246.41 95.9138 223.958 106.266 192.321C113.773 169.372 171.949 173.042 139.781 207.886C120.107 229.196 123.302 241.22 136.36 271.813H136.359Z" fill="#A2D9F7"/>
<path fill-rule="evenodd" clip-rule="evenodd" d="M889.811 225.729C945.14 250.566 1011.2 274.121 1065.96 252.631C1107.69 236.256 1087.54 172.757 1016.03 208.607C974.318 229.52 935.245 241.454 889.811 225.729Z" fill="#F5B5D2"/>
<path fill-rule="evenodd" clip-rule="evenodd" d="M725.639 230.873C788.917 223.402 903.399 254.211 937.447 299.045C945.13 309.163 944.568 319.731 938.974 327.917H873.002C867.329 322.806 861.882 316.212 856.93 307.879C834.525 270.177 785.923 232.775 725.639 230.873V230.873Z" fill="#7E71B1"/>
<path fill-rule="evenodd" clip-rule="evenodd" d="M1087.18 194.317C1110.66 177.68 1128.32 135.013 1113.62 112.21C1102.41 94.8354 1059.67 103.863 1084.13 133.571C1098.39 150.901 1097.61 175.097 1087.18 194.317V194.317Z" fill="#F7AA47"/>
<path fill-rule="evenodd" clip-rule="evenodd" d="M1191.62 114.221C1183.53 79.4059 1211.6 18.6551 1254.34 2.38644C1263.14 -0.962897 1272.39 -0.553766 1280 2.16803V40.587C1275.65 42.7816 1270.37 44.8321 1264 46.652C1227.97 56.9443 1201.44 85.199 1191.62 114.221V114.221Z" fill="#FECC00"/>
<path fill-rule="evenodd" clip-rule="evenodd" d="M947.374 255.153C1056.95 337.814 1171.8 282.968 1200.42 228.146C1216.63 197.1 1202.01 165.025 1171.67 155.132C1141.32 145.239 1098.33 184.49 1107.44 218.519C1120.42 267.005 1021.64 296.01 947.374 255.153V255.153Z" fill="#F08683"/>
<path fill-rule="evenodd" clip-rule="evenodd" d="M974.617 280.719C1012.29 307.675 1053.63 322.436 1095.17 327.917H1173.25C1211.59 323.085 1248.15 311.545 1280 295.756V69.8525C1233.65 84.7868 1209.94 139.794 1220.19 184.582C1239.67 269.737 1108.03 363.128 974.617 280.718V280.719Z" fill="#E51A4B"/>
<path fill-rule="evenodd" clip-rule="evenodd" d="M807.554 327.917C814.028 312.979 836.035 305.003 857.832 327.917H807.554Z" fill="#CB5499"/>
<path fill-rule="evenodd" clip-rule="evenodd" d="M837.738 225.917C922.827 240.967 977.677 282.277 1007.43 327.917H970.344C956.604 280.936 900.646 242.887 837.738 225.917Z" fill="#A82682"/>
<path fill-rule="evenodd" clip-rule="evenodd" d="M535.713 327.917C579.377 270.592 651.092 233.396 717.205 243.45C757.802 249.624 822.342 267.626 809.034 294.009C772.672 366.093 680.44 255.216 571.446 327.917H535.713Z" fill="#A2D9F7"/>
</svg>
