<svg width="83" height="82" viewBox="0 0 83 82" fill="none" xmlns="http://www.w3.org/2000/svg">
<path d="M29.8467 14.1959L30.2705 14.6142L29.7056 14.3389L29.8467 14.1959Z" fill="#542BC7"/>
<path d="M30.2707 14.6142L78.301 62.021C80.3847 64.0776 80.3499 67.433 78.3021 69.5077L70.3228 77.5919C68.2397 79.7024 64.8851 79.7104 62.8368 77.6887L14.3826 29.8635L29.6703 14.3747L30.2707 14.6142Z" fill="#542BC7"/>
<path d="M29.7055 14.339L14.6296 29.6133L6.92929 12.4087C5.3751 8.96798 8.94107 5.35512 12.4018 6.86422L29.7055 14.339Z" fill="#542BC7"/>
<path d="M14.3826 29.8635L29.8469 14.1959L32.6369 16.9497L14.3826 29.8635Z" fill="#E79D4B"/>
<path d="M70.4608 54.2826L54.9965 69.9502L56.6564 71.5885L72.1206 55.9209L70.4608 54.2826Z" fill="#E06B6B"/>
<path d="M67.4235 51.2848L51.9593 66.9524L53.6192 68.5907L69.0834 52.9231L67.4235 51.2848Z" fill="#E06B6B"/>
<path d="M73.498 57.2802L58.0338 72.9479L61.3535 76.2245L76.8178 60.5569L73.498 57.2802Z" fill="#E06B6B"/>
<path d="M53.0519 52.5652C55.9573 49.6216 54.5336 43.5054 49.8719 38.9043C45.2103 34.3031 39.0761 32.9594 36.1707 35.903C33.2653 38.8466 34.689 44.9629 39.3506 49.564C44.0122 54.1651 50.1465 55.5088 53.0519 52.5652Z" fill="#E06B6B"/>
</svg>
