<svg width="63" height="63" viewBox="0 0 63 63" fill="none" xmlns="http://www.w3.org/2000/svg">
<path d="M34.9656 41.6613C36.609 40.6488 37.7272 38.9677 38.0258 37.0606C38.3247 35.1535 37.7745 33.2115 36.5197 31.7446C35.2645 30.278 33.4309 29.4334 31.5007 29.4334C29.5705 29.4334 27.737 30.278 26.4817 31.7446C25.227 33.2116 24.6768 35.1535 24.9757 37.0606C25.2742 38.9677 26.3923 40.6488 28.0359 41.6613C25.9528 41.7683 23.9904 42.6715 22.5552 44.1848C21.1195 45.6976 20.3206 47.7045 20.3233 49.7903V61.9839C20.3233 62.2533 20.4304 62.5119 20.6209 62.7024C20.8114 62.8929 21.07 63 21.3394 63H41.662C41.9315 63 42.19 62.8929 42.3806 62.7024C42.5711 62.5119 42.6781 62.2533 42.6781 61.9839V49.7903C42.6809 47.7045 41.882 45.6977 40.4463 44.1848C39.011 42.6715 37.0486 41.7682 34.9656 41.6613ZM26.9281 36.0726C26.9281 34.8601 27.4099 33.6969 28.2672 32.8391C29.125 31.9817 30.2881 31.5 31.5007 31.5C32.7133 31.5 33.8764 31.9817 34.7342 32.8391C35.5916 33.6969 36.0733 34.86 36.0733 36.0726C36.0733 37.2852 35.5916 38.4482 34.7342 39.3061C33.8764 40.1634 32.7133 40.6452 31.5007 40.6452C30.2886 40.6424 29.1273 40.1598 28.2705 39.3028C27.4137 38.4459 26.9309 37.2846 26.9281 36.0726ZM32.9029 50.5829L31.5007 52.2699L30.0986 50.5834L31.5007 46.0815L32.9029 50.5829ZM40.6459 60.9678H22.3556V49.7904C22.3556 48.1732 22.9979 46.6228 24.1411 45.4791C25.2847 44.336 26.8351 43.6937 28.4523 43.6937H30.119L27.9951 50.5017C27.8899 50.8306 27.9589 51.1903 28.178 51.4571L30.7183 54.5055C30.9115 54.7382 31.1982 54.8729 31.5008 54.8729C31.8034 54.8729 32.09 54.7382 32.2833 54.5055L34.8236 51.4571C35.0427 51.1903 35.1117 50.8306 35.0064 50.5017L32.8825 43.6937H34.5492C36.1664 43.6937 37.7169 44.336 38.8605 45.4791C40.0037 46.6227 40.646 48.1732 40.646 49.7904L40.6459 60.9678Z" fill="#0C54A0"/>
<path d="M24.2445 11.9694C23.8589 12.0221 23.5373 12.2902 23.4162 12.6603C23.2951 13.03 23.3958 13.4365 23.6757 13.7073L26.8561 16.7557L26.104 21.125H26.1044C26.0409 21.5052 26.1983 21.8885 26.5109 22.1144C26.823 22.3403 27.2362 22.3702 27.5778 22.192L31.4998 20.1597L35.4219 22.192C35.5688 22.2709 35.7331 22.3131 35.8995 22.3135C36.1114 22.3122 36.3173 22.245 36.4888 22.1207C36.8109 21.8898 36.9697 21.4934 36.8953 21.1046L36.1431 16.7353L39.3236 13.6869H39.324C39.6039 13.4165 39.7046 13.0096 39.5835 12.6399C39.4624 12.2697 39.1408 12.0016 38.7552 11.949L34.3758 11.3089L32.4143 7.3565C32.2446 7.00585 31.8894 6.78311 31.4998 6.78311C31.1101 6.78311 30.7549 7.00585 30.5853 7.3565L28.6242 11.3294L24.2445 11.9694ZM30.2093 12.7111L31.4998 10.1608L32.7903 12.7619C32.9369 13.0622 33.2217 13.2713 33.5524 13.3207L36.428 13.7372L34.3449 15.7694V15.7699C34.1063 16.0017 33.9961 16.3356 34.05 16.664L34.5481 19.4787L31.9774 18.1273C31.6762 17.9781 31.3232 17.9781 31.022 18.1273L28.4513 19.4787L28.9494 16.6131C29.0034 16.2847 28.8931 15.9508 28.6545 15.719L26.5714 13.6868L29.4674 13.2699C29.7904 13.2141 30.0667 13.0063 30.2091 12.711L30.2093 12.7111Z" fill="#0C54A0"/>
<path d="M30.4841 0H32.5164V4.06452H30.4841V0Z" fill="#0C54A0"/>
<path d="M35.7622 5.07473L38.2014 1.82358L39.8272 3.0434L37.388 6.29455L35.7622 5.07473Z" fill="#0C54A0"/>
<path d="M23.168 3.04838L24.7938 1.82903L27.2325 5.08064L25.6067 6.29999L23.168 3.04838Z" fill="#0C54A0"/>
<path d="M11.6248 50.8065H10.6087L11.1471 48.6521C11.2986 48.0774 11.2256 47.4659 10.9425 46.9428C10.659 46.4198 10.1872 46.0247 9.62295 45.8374C9.06044 45.6627 8.4526 45.709 7.92363 45.968C7.3947 46.227 6.98463 46.6784 6.77777 47.2295L5.76164 49.9223C5.5566 50.4612 5.03719 50.8141 4.46111 50.8064H0.000127583V52.8387H4.46111C5.15244 52.8378 5.82702 52.6259 6.39489 52.2322C6.96328 51.8384 7.39786 51.2809 7.64142 50.6336L8.65755 47.9408C8.70155 47.7992 8.84988 47.7185 8.99277 47.7579C9.12977 47.8332 9.19374 47.9956 9.1452 48.144L8.29146 51.5579V51.5584C8.21797 51.8591 8.28511 52.1771 8.47472 52.4221C8.66615 52.6711 8.96283 52.8177 9.2772 52.8181H11.6247C11.7862 52.8172 11.9409 52.8834 12.0512 53.0009C12.1573 53.1248 12.209 53.2863 12.1936 53.4482L11.7463 57.4011C11.725 57.6978 11.4751 57.9255 11.1775 57.9192H5.89361L4.62339 57.0759C4.45826 56.9647 4.26365 56.9044 4.06452 56.903H0V58.9353H3.75968L5.08064 59.7786C5.23125 59.8807 5.4068 59.9405 5.58871 59.9514H11.1774C11.817 59.9501 12.4344 59.7133 12.9103 59.286C13.3866 58.8586 13.6883 58.2707 13.7586 57.6347L14.2258 53.6818C14.3075 52.9451 14.0693 52.2088 13.5721 51.6591C13.0745 51.1093 12.3659 50.799 11.6247 50.8062L11.6248 50.8065Z" fill="#0C54A0"/>
<path d="M16.594 30.2505L15.649 29.8136L17.0412 28.0962C17.6019 27.4974 17.8006 26.6446 17.5624 25.8593C17.3243 25.0741 16.6851 24.4757 15.8858 24.2892C15.0865 24.1028 14.2486 24.3573 13.6879 24.9561L11.6556 26.9883C11.2505 27.3821 10.6454 27.4869 10.1314 27.2528L6.09735 25.3426L5.24362 27.1816L9.30814 29.0714C9.92417 29.3513 10.6096 29.442 11.2773 29.3318C11.9451 29.2211 12.5647 28.9149 13.0578 28.4517L15.0901 26.4195C15.1958 26.3201 15.3604 26.3201 15.4661 26.4195C15.561 26.5383 15.561 26.7071 15.4661 26.8259L13.2102 29.539C13.0106 29.7831 12.9353 30.1056 13.007 30.4127C13.0773 30.7167 13.2833 30.9716 13.5659 31.1036L15.6997 32.1197C15.844 32.1891 15.9542 32.3134 16.0046 32.4654C16.0459 32.6196 16.0241 32.7843 15.9438 32.9227L13.9115 36.3266C13.7736 36.5739 13.4747 36.6823 13.2102 36.5807L8.41397 34.3452L7.62148 33.0446C7.51806 32.8723 7.36609 32.7344 7.18464 32.6482L3.47571 30.8803L2.62198 32.7194L6.02595 34.3043L6.81844 35.5645C6.92187 35.7369 7.07383 35.8748 7.25574 35.961L12.3364 38.3285C12.6802 38.4873 13.0545 38.5703 13.4337 38.5721C14.3432 38.5753 15.1878 38.1008 15.6587 37.3223L17.691 33.9184C18.0752 33.2869 18.1714 32.5217 17.9555 31.8149C17.735 31.129 17.2428 30.5634 16.5936 30.2503L16.594 30.2505Z" fill="#0C54A0"/>
<path d="M57.2588 49.9123L56.2427 47.2195C55.9887 46.4388 55.3372 45.8531 54.5343 45.6831C53.7314 45.513 52.8985 45.7842 52.3497 46.3944C51.8008 47.0045 51.6193 47.8614 51.8734 48.642L52.4223 50.8063H51.4061C50.6595 50.79 49.9423 51.0967 49.4383 51.6474C48.9339 52.1985 48.6921 52.9398 48.7742 53.6819L49.2111 57.6349C49.2818 58.2758 49.588 58.8683 50.0707 59.2966C50.5529 59.7243 51.1775 59.9579 51.8226 59.9516H57.4113C57.6105 59.9502 57.8051 59.8899 57.9702 59.7788L59.2404 58.9355H63.0001V56.9032H58.9356C58.7364 56.9046 58.5418 56.9649 58.3767 57.076L57.1065 57.9193H51.8226C51.5327 57.9207 51.2901 57.6998 51.2637 57.4113L50.8065 53.4583C50.7911 53.2964 50.8428 53.1349 50.9489 53.0115C51.0592 52.8936 51.2138 52.8274 51.3753 52.8287H53.7229C54.0372 52.8278 54.3339 52.6813 54.5254 52.4322C54.715 52.1873 54.7821 51.8693 54.7086 51.5685L53.8549 48.1546C53.8064 48.0058 53.8703 47.8434 54.0073 47.7681C54.147 47.7254 54.2963 47.7957 54.353 47.9309L55.3691 50.6237C55.61 51.2711 56.0427 51.8295 56.6089 52.225C57.175 52.6211 57.8487 52.8347 58.5391 52.8388H63.0001V50.8065H58.5391C57.968 50.8043 57.4576 50.4482 57.259 49.9124L57.2588 49.9123Z" fill="#0C54A0"/>
<path d="M50.6744 38.369L55.755 36.0015C55.9365 35.9158 56.0885 35.7779 56.1919 35.6055L56.9844 34.3049L60.3883 32.72L59.5346 30.881L55.887 32.5975C55.7055 32.6837 55.5531 32.8216 55.4502 32.994L54.6577 34.2945L49.7902 36.5809C49.528 36.7047 49.215 36.6076 49.069 36.3572L47.0367 32.9532C46.956 32.8153 46.9342 32.6507 46.9755 32.496C47.0263 32.3445 47.1361 32.2197 47.2803 32.1508L49.4142 31.1346C49.6968 31.0022 49.9027 30.7472 49.9731 30.4433C50.0447 30.1367 49.9694 29.8137 49.7698 29.5696L47.5548 26.8465C47.4595 26.7277 47.4595 26.5589 47.5548 26.4401C47.6605 26.3407 47.8251 26.3407 47.9308 26.4401L49.9631 28.4723C50.458 28.9532 51.0872 29.2725 51.7672 29.3886C52.4476 29.5048 53.1471 29.4118 53.7735 29.1224L57.838 27.2326L56.9031 25.3428L52.8386 27.2326C52.3246 27.4667 51.7195 27.3619 51.3144 26.9686L49.2821 24.9363C48.7215 24.3371 47.8836 24.083 47.0843 24.269C46.285 24.4555 45.6458 25.0538 45.4076 25.8391C45.1694 26.6244 45.3681 27.4771 45.9288 28.076L47.321 29.7934L46.3761 30.2303C45.707 30.546 45.2017 31.1289 44.9839 31.8356C44.768 32.5424 44.8642 33.3077 45.2479 33.9391L47.2802 37.343C47.5152 37.74 47.8522 38.067 48.2559 38.2902C48.6597 38.5139 49.1156 38.625 49.5769 38.6132C49.9557 38.6114 50.3299 38.5279 50.6742 38.3691L50.6744 38.369Z" fill="#0C54A0"/>
</svg>
