<svg width="64" height="41" viewBox="0 0 64 41" fill="none" xmlns="http://www.w3.org/2000/svg">
<path d="M10.5325 7.84612C13.9183 7.84612 16.663 10.5912 16.663 13.9766C16.663 17.3624 13.9183 20.108 10.5325 20.108C7.14665 20.108 4.40106 17.3629 4.40106 13.9766C4.40106 10.5912 7.14665 7.84612 10.5325 7.84612ZM52.8653 7.84612C56.252 7.84612 58.9967 10.5912 58.9967 13.9766C58.9967 17.3624 56.2521 20.108 52.8653 20.108C49.4794 20.108 46.7348 17.3629 46.7348 13.9766C46.7348 10.5912 49.4794 7.84612 52.8653 7.84612ZM48.5667 33.1536H63.3962C63.3962 27.3371 58.6811 22.622 52.8646 22.622C49.6388 22.622 46.7531 24.0762 44.8229 26.3621C44.1575 25.6151 43.4319 24.9273 42.6524 24.3019C41.1047 23.0632 39.3502 22.0693 37.4396 21.4063C40.8648 19.4196 43.1739 15.7108 43.1739 11.4754C43.1739 5.14734 38.0251 0 31.6985 0C25.372 0 20.2241 5.14734 20.2241 11.4754C20.2241 15.7118 22.5337 19.4191 25.9575 21.4063C24.0463 22.0693 22.2929 23.0628 20.7432 24.3019C19.9648 24.9283 19.2376 25.6165 18.5746 26.3621C16.6417 24.0762 13.7583 22.622 10.5302 22.622C4.71511 22.622 0 27.3361 0 33.1536H14.8307C14.5524 34.1206 14.3529 35.1194 14.2451 36.1466C14.1791 36.7579 14.134 37.3777 14.134 38.007C14.134 39.6603 15.4752 41 17.1265 41H46.2675C47.9222 41 49.2625 39.6602 49.2625 38.007C49.2625 37.3772 49.2164 36.7583 49.1523 36.1466C49.045 35.1184 48.8469 34.1206 48.5667 33.1536H48.5667ZM23.2179 11.4754C23.2179 6.79017 27.0149 2.99301 31.6993 2.99301C36.383 2.99301 40.1807 6.79005 40.1807 11.4754C40.1807 16.1591 36.3817 19.9577 31.6993 19.9577C27.015 19.9577 23.2179 16.1597 23.2179 11.4754ZM17.1283 38.0084C17.1283 37.3773 17.1734 36.757 17.2508 36.1481C17.3843 35.1123 17.6227 34.1101 17.9594 33.1551C18.4918 31.652 19.2617 30.2628 20.2258 29.0332C20.8807 28.1964 21.6221 27.4312 22.4419 26.7559C24.959 24.6828 28.1825 23.439 31.6989 23.439C35.2143 23.439 38.4382 24.6828 40.9572 26.7559C41.7755 27.4313 42.5164 28.196 43.1728 29.0332C44.1374 30.2628 44.9082 31.652 45.4373 33.1551C45.7764 34.1097 46.0162 35.1119 46.1468 36.1481C46.2252 36.7574 46.2689 37.3777 46.2689 38.0084H17.1283Z" fill="#0C54A0"/>
</svg>
