<svg width="63" height="63" viewBox="0 0 63 63" fill="none" xmlns="http://www.w3.org/2000/svg">
<path d="M14.473 22.3724H8.89666C8.16639 22.3724 7.50232 22.9698 7.50232 23.7667V28.0154C7.50232 28.7457 8.09969 29.4098 8.89666 29.4098H14.473C15.2032 29.4098 15.8673 28.8124 15.8673 28.0154V23.7667C15.8006 23.0365 15.2033 22.3724 14.473 22.3724Z" fill="#0C54A0"/>
<path d="M26.8207 22.3724H21.2444C20.5142 22.3724 19.8501 22.9698 19.8501 23.7667V28.0154C19.8501 28.7457 20.4475 29.4098 21.2444 29.4098L26.8207 29.4093C27.551 29.4093 28.2151 28.812 28.2151 28.015V23.7663C28.2146 23.0365 27.6172 22.3724 26.8207 22.3724V22.3724Z" fill="#0C54A0"/>
<path d="M33.6585 29.3429H39.2348C39.9651 29.3429 40.6292 28.7456 40.6292 27.9486V23.6999C40.6292 22.9696 40.0318 22.3056 39.2348 22.3056H33.6585C32.9283 22.3056 32.2642 22.9029 32.2642 23.6999V27.9486C32.2642 28.7455 32.862 29.3429 33.6585 29.3429Z" fill="#0C54A0"/>
<path d="M14.473 33.5252H8.89666C8.16639 33.5252 7.50232 34.1226 7.50232 34.9196V39.1683C7.50232 39.8986 8.09969 40.5626 8.89666 40.5626H14.473C15.2032 40.5626 15.8673 39.9653 15.8673 39.1683V34.9196C15.8006 34.1226 15.2033 33.5252 14.473 33.5252Z" fill="#0C54A0"/>
<path d="M26.8207 33.5252H21.2444C20.5142 33.5252 19.8501 34.1226 19.8501 34.9196V39.1683C19.8501 39.8986 20.4475 40.5626 21.2444 40.5626L26.8207 40.5622C27.551 40.5622 28.2151 39.9648 28.2151 39.1678V34.9191C28.2146 34.1226 27.6172 33.5253 26.8207 33.5253V33.5252Z" fill="#0C54A0"/>
<path d="M47.9978 29.9404V10.7549C47.9978 7.83378 45.608 5.44388 42.6869 5.44388H37.1768V2.12459C37.1768 0.929877 36.2474 0 35.0522 0H32.4632C31.3347 0 30.3386 0.929379 30.3386 2.12459V5.51015L17.5925 5.51061V2.12469C17.5925 0.929984 16.5969 0.000107402 15.4679 0.000107402H12.8789C11.6842 0.000107402 10.7543 0.929486 10.7543 2.12469V5.51026H5.24425C2.32315 5.51026 0 7.90015 0 10.8212V42.6865C0 45.6076 2.38989 47.9307 5.24425 47.9307L30.139 47.9312C30.9355 56.2957 37.9723 62.8016 46.5363 62.8016C55.631 62.8016 63 55.4328 63 46.3379C63 37.7739 56.4277 30.6709 47.9968 29.9406L47.9978 29.9404ZM57.0263 47.8646H59.9474C59.6821 50.4537 58.6198 52.8435 57.0931 54.7685L55.0352 52.7107C54.4379 52.1133 53.5085 52.1133 52.9106 52.7107C52.3133 53.308 52.3133 54.2374 52.9106 54.8352L54.9685 56.8931C53.0435 58.4198 50.6536 59.4821 48.0646 59.7474V56.8263C48.0646 55.9632 47.4005 55.2996 46.5378 55.2996C45.6747 55.2996 45.0111 55.9636 45.0111 56.8263V59.7474C42.422 59.4821 40.0321 58.4198 38.1072 56.8931L40.165 54.8352C40.7624 54.2379 40.7624 53.3085 40.165 52.7107C39.5676 52.1133 38.6383 52.1133 38.0404 52.7107L35.9826 54.7685C34.4558 52.8435 33.3935 50.4537 33.1282 47.8646H36.0493C36.9125 47.8646 37.5761 47.2006 37.5761 46.3378C37.5761 45.4747 36.912 44.8111 36.0493 44.8111H33.1282C33.3936 42.222 34.4558 39.8321 35.9826 37.9072L38.0404 39.965C38.3058 40.2304 38.7045 40.43 39.1027 40.43C39.5009 40.43 39.8992 40.2971 40.165 39.965C40.7624 39.3677 40.7624 38.4383 40.165 37.8404L38.1062 35.7826C40.4299 33.9238 43.3504 32.8615 46.4707 32.8615C49.6571 32.8615 52.5782 33.99 54.8352 35.7826L52.7774 37.8404C52.18 38.4378 52.18 39.3672 52.7774 39.965C53.0427 40.2304 53.4414 40.43 53.8396 40.43C54.2379 40.43 54.6361 40.2971 54.9019 39.965L56.9598 37.9072C58.4865 39.8321 59.5488 42.222 59.8141 44.8111H56.893C56.0299 44.8111 55.3663 45.4751 55.3663 46.3378C55.3667 47.201 56.1632 47.8646 57.0264 47.8646H57.0263ZM2.92181 42.6865V17.7918H45.0105V29.9404C37.1109 30.6707 30.8039 36.9772 30.14 44.9436H5.17893C3.98422 44.9436 2.92193 43.8818 2.92193 42.6866L2.92181 42.6865Z" fill="#0C54A0"/>
<path d="M51.4499 44.8109H48.1969L48.064 44.678L48.0645 37.442C48.0645 36.5788 47.4004 35.9152 46.5377 35.9152C45.6745 35.9152 45.0109 36.5793 45.0109 37.442L45.0105 44.678C44.5456 45.0762 44.2802 45.6736 44.2802 46.3376C44.2802 47.5991 45.2758 48.5946 46.5372 48.5946C47.2013 48.5946 47.7319 48.3293 48.1969 47.8643H51.4499C52.313 47.8643 52.9766 47.2003 52.9766 46.3376C52.9771 45.4744 52.2469 44.8108 51.4499 44.8108L51.4499 44.8109Z" fill="#0C54A0"/>
</svg>
