<svg width="63" height="63" viewBox="0 0 63 63" fill="none" xmlns="http://www.w3.org/2000/svg">
<path d="M53.016 44.4456C52.5406 44.0472 52.1937 43.5076 52.0266 42.8908L50.4719 37.1858C50.2406 36.3249 49.7781 35.5411 49.1484 34.8986L49.0713 34.8215L52.2836 27.3303C52.5535 26.6879 52.6948 26.0068 52.6948 25.3002V20.9058C52.6948 19.9549 53.1445 19.0427 53.9026 18.4644L62.9613 11.5002L52.8232 0L44.4456 9.98385C44.0472 10.4593 43.5076 10.8062 42.8908 10.9732L37.1858 12.528C36.3249 12.7593 35.5411 13.2218 34.8986 13.8515L34.8215 13.9286L27.3303 10.7162C26.6879 10.4464 26.0068 10.3051 25.3002 10.3051H20.9058C19.9549 10.3051 19.0427 9.85533 18.4644 9.09725L11.5001 0.0385508L9.86825 1.29781L12.5537 4.79281L5.3453 12.0012L1.3106 8.5962L0 10.1638L9.98385 18.5415C10.4593 18.9398 10.8062 19.4795 10.9732 20.0962L12.528 25.8013C12.7593 26.6622 13.2218 27.446 13.8515 28.0885L13.9286 28.1656L10.7162 35.6567C10.4464 36.2992 10.3051 36.9802 10.3051 37.6869V42.0813C10.3051 43.0322 9.85533 43.9444 9.09725 44.5226L0.0385505 51.4869L10.1638 62.9871L18.5415 53.0032C18.9398 52.5278 19.4795 52.1809 20.0962 52.0138L25.8013 50.4591C26.6622 50.2278 27.446 49.7653 28.0885 49.1356L28.1656 49.0585L35.6567 52.2708C36.2992 52.5407 36.9802 52.682 37.6869 52.682H42.0813C43.0322 52.682 43.9444 53.1317 44.5226 53.8898L51.4869 62.9485L53.1188 61.6893L51.7697 59.9418L59.3122 52.3993L61.6765 54.3781L63 52.7976L53.016 44.4456ZM36.3634 15.3037C36.7488 14.9182 37.2114 14.6484 37.7382 14.507L43.4432 12.9523C43.6874 12.8881 43.9187 12.7981 44.15 12.7082L50.8701 19.4283C50.7288 19.9166 50.6517 20.4177 50.6517 20.9189V25.3133C50.6517 25.7374 50.5617 26.1486 50.4075 26.5341L47.5165 33.28L45.9746 31.738L46.874 27.8576C47.0025 27.3051 46.6556 26.7526 46.1031 26.6241C45.7561 26.547 45.3964 26.6498 45.1394 26.8939L43.1349 28.8983L41.683 27.4464L43.6875 25.442L42.2355 23.99L40.2182 26.0074C39.6785 25.5705 38.9974 25.3392 38.3036 25.3392C38.188 25.3392 38.0723 25.3521 37.9567 25.3521L40.7835 22.5253L39.3316 21.0734L35.5667 24.8125C35.0656 24.4784 34.4617 24.2857 33.8577 24.2985C33.6007 24.2985 33.3438 24.3371 33.0868 24.4013L37.8668 19.6213L36.4148 18.1694L29.0265 25.5578C28.551 25.2494 28.0114 25.0695 27.446 25.0438C27.3175 24.6712 27.4203 24.26 27.6901 23.9902L36.3634 15.3037ZM12.9521 19.5568C12.7594 18.8244 12.3996 18.1562 11.9113 17.5909L18.0405 11.4618C18.8885 12.04 19.8907 12.3484 20.9187 12.3484H25.3131C25.7371 12.3484 26.1483 12.4383 26.5338 12.5925L33.2797 15.4835L31.7378 17.0255L27.8574 16.126C27.3048 15.9975 26.7523 16.3445 26.6238 16.897C26.5467 17.2439 26.6495 17.6037 26.8937 17.8607L28.8981 19.8651L27.4462 21.317L25.4417 19.3126L23.9898 20.7645L26.0072 22.7819C25.5703 23.3215 25.339 24.0026 25.339 24.6964C25.339 24.8121 25.3519 24.9277 25.3519 25.0434L22.5251 22.2166L21.0732 23.6685L24.234 26.8294L22.7692 28.2813L19.6083 25.1204L18.349 26.3797C17.5524 25.7115 16.4987 25.4288 15.4708 25.6344C15.2138 25.6858 14.9954 25.8272 14.8412 26.0456C14.687 25.8015 14.5713 25.5316 14.4943 25.2489L12.9521 19.5568ZM19.3382 27.7546L21.317 29.7334L18.9399 32.1105L19.4796 29.759C19.6338 29.1037 19.5824 28.397 19.3383 27.7546H19.3382ZM26.6238 47.6838C26.2383 48.0692 25.7757 48.3391 25.2489 48.4804L19.5439 50.0351C19.2997 50.0994 19.0685 50.1893 18.8372 50.2793L12.117 43.5591C12.2583 43.0708 12.3355 42.5697 12.3355 42.0685V37.6741C12.3355 37.2501 12.4254 36.8389 12.5796 36.4534L16.3572 27.6388C17.1025 27.7673 17.6036 28.474 17.4751 29.2192C17.4751 29.2449 17.4623 29.2706 17.4623 29.2963L16.1131 35.1299C15.9846 35.6824 16.3316 36.2349 16.8841 36.3634C17.231 36.4405 17.5908 36.3377 17.8478 36.0936L26.5725 27.3689C26.9708 26.9705 27.6262 26.9705 28.0244 27.3689C28.4227 27.7672 28.4228 28.4225 28.0244 28.8208L19.2997 37.5455L20.7516 38.9974L33.1128 26.6363C33.5111 26.2379 34.1664 26.2379 34.5647 26.6363C34.963 27.0346 34.9631 27.6899 34.5647 28.0882L22.2036 40.4493L23.6555 41.9013L33.8321 31.7246C34.2305 31.3263 34.8858 31.3263 35.2841 31.7246C35.6823 32.123 35.6824 32.7783 35.2841 33.1766L25.1074 43.3532L26.5593 44.8051L33.832 37.5325C34.2303 37.1341 34.8857 37.1341 35.2839 37.5325C35.6822 37.9308 35.6823 38.5861 35.2839 38.9844L26.6238 47.6838ZM47.8252 54.8279L46.1548 52.6435C45.1782 51.3842 43.6749 50.6391 42.0815 50.6391H37.6871C37.2631 50.6391 36.8519 50.5491 36.4664 50.3949L29.7205 47.5039L31.2624 45.962L35.1429 46.8614C35.6954 46.9899 36.2479 46.643 36.3764 46.0905C36.4535 45.7435 36.3507 45.3837 36.1066 45.1268L34.1021 43.1223L35.5541 41.6704L37.5585 43.6748L39.0104 42.2229L36.9931 40.2056C37.4299 39.6659 37.6612 38.9848 37.6612 38.291C37.6612 38.1754 37.6484 38.0597 37.6484 37.9441L40.4752 40.7709L41.9271 39.3189L37.0058 34.3976C37.4426 33.8579 37.6739 33.1769 37.6739 32.4831C37.6739 32.3674 37.6611 32.2518 37.6611 32.1361L43.3918 37.8669L44.8438 36.415L37.5711 29.1423C37.1728 28.744 37.1728 28.0886 37.5711 27.6904C37.9694 27.2921 38.6247 27.292 39.023 27.6904L47.6963 36.3636C48.0817 36.7491 48.3516 37.2117 48.4929 37.7385L50.0476 43.4435C50.3175 44.4586 50.8957 45.3581 51.7052 46.0262L54.3906 48.2876L47.8252 54.8279Z" fill="#0C54A0"/>
<path d="M4.48413 16.6007C1.96561 21.1621 0.655017 26.2891 0.655017 31.4935C0.642167 36.2991 1.76005 41.0276 3.9187 45.3196L5.7562 44.3945C3.73884 40.3983 2.6981 35.9781 2.7109 31.4941C2.7109 26.637 3.93163 21.8571 6.28297 17.6045L4.48413 16.6007Z" fill="#0C54A0"/>
<path d="M31.4939 60.2759C26.6368 60.2759 21.857 59.0552 17.6043 56.7038L16.6149 58.5027C21.1636 61.0212 26.2904 62.3318 31.4948 62.3318C36.3004 62.3446 41.029 61.2268 45.321 59.0681L44.3958 57.2306C40.3996 59.248 35.9795 60.2887 31.4954 60.2759H31.4939Z" fill="#0C54A0"/>
<path d="M58.5035 46.3863C61.022 41.8248 62.3326 36.6979 62.3326 31.4935C62.3455 26.6879 61.2276 21.9593 59.0689 17.6674L57.2314 18.5925C59.2488 22.5887 60.2895 27.0088 60.2767 31.4929C60.2767 36.3499 59.056 41.1298 56.7047 45.3825L58.5035 46.3863Z" fill="#0C54A0"/>
<path d="M31.4939 2.71112C36.3509 2.71112 41.1308 3.93184 45.3834 6.28319L46.3728 4.48435C41.8242 1.96583 36.6974 0.65523 31.4929 0.65523C26.6873 0.642381 21.9588 1.76026 17.6668 3.91892L18.592 5.75641C22.5881 3.73906 27.0083 2.69831 31.4923 2.71112H31.4939Z" fill="#0C54A0"/>
</svg>
